<svg width="263" height="26" viewBox="0 0 263 26" fill="none" xmlns="http://www.w3.org/2000/svg">
<path d="M8.94629 0.245117C11.4072 0.245117 12.9453 0.552734 14.5518 1.03125C15.3379 1.30469 15.4404 1.44141 15.4404 1.68066V6.1582H14.9961C14.3467 4.27832 12.3301 2.15918 9.4248 2.15918C6.58789 2.15918 5.15234 4.03906 5.15234 5.85059C5.15234 7.62793 5.76758 8.75586 9.49316 10.6357C15.0645 13.4727 17.1836 14.9424 17.1836 18.873C17.1836 23.043 14.1074 25.8457 8.16016 25.8457C6.04102 25.8457 3.30664 25.5039 1.11914 24.4443C0.572266 24.1367 0.503906 23.8975 0.503906 23.5215V19.0098H0.948242C1.76855 21.5732 4.50293 23.9316 7.9209 23.9316C11.2021 23.9316 12.8086 22.1201 12.8086 19.7617C12.8086 17.0957 11.168 15.6602 7.37402 13.9512C3.85352 12.3789 0.879883 10.3965 0.879883 6.6709C0.879883 2.50098 4.33203 0.245117 8.94629 0.245117ZM21.2852 3.15039C21.2852 1.81738 20.8408 1.37305 19.7471 1.03125V0.723633H25.2158C25.4209 0.723633 25.626 0.791992 25.626 0.962891V11.832H36.4951V3.15039C36.4951 1.81738 36.085 1.37305 34.957 1.03125V0.723633H40.4258C40.6309 0.723633 40.8359 0.791992 40.8359 0.962891V23.5898C40.8359 24.2734 40.665 24.9229 40.2207 25.5039H36.4951V13.7461H25.626V23.5898C25.626 24.2734 25.4551 24.9229 25.0107 25.5039H21.2852V3.15039ZM65.6162 25.5039H61.5146L60.7969 23.1113L59.1904 17.9844H50.4062L48.0479 25.5039H44.9033L52.5254 2.97949C52.9355 1.68066 52.5254 1.37305 51.7393 1.03125V0.723633H57.3105L65.6504 24.1025C65.8213 24.6152 65.7871 25.0254 65.6162 25.5039ZM50.9873 16.0703H58.5752L54.7812 4.07324L50.9873 16.0703ZM70.1963 3.15039C70.1963 1.81738 69.7861 1.37305 68.6924 1.03125V0.723633H74.1611C74.332 0.723633 74.5371 0.791992 74.5371 0.962891V23.5898H82.0566C84.9619 23.5898 86.0557 22.9746 86.876 21.8125H87.3545V25.0938C87.3545 25.3672 87.252 25.5039 86.8076 25.5039H70.1963V3.15039ZM91.1826 3.15039C91.1826 1.81738 90.7725 1.37305 89.6787 1.03125V0.723633H95.1475C95.3184 0.723633 95.5234 0.791992 95.5234 0.962891V23.5898H103.043C105.948 23.5898 107.042 22.9746 107.862 21.8125H108.341V25.0938C108.341 25.3672 108.238 25.5039 107.794 25.5039H91.1826V3.15039ZM131.583 3.18457C131.31 1.88574 130.626 1.33887 129.703 1.03125V0.723633H134.488C134.625 0.723633 134.83 0.826172 134.864 0.962891L139.376 21.4707L143.102 3.08203C143.341 1.7832 143.204 1.27051 142.247 1.03125V0.723633H146.007C146.28 0.723633 146.485 0.894531 146.417 1.20215L140.812 25.5039H136.812L133.189 10.0889L129.498 25.5039H125.465L120.372 3.18457C120.099 1.88574 119.415 1.33887 118.492 1.03125V0.723633H123.346C123.482 0.723633 123.653 0.860352 123.688 0.99707L128.028 21.5391L132.027 5.03027L131.583 3.18457ZM162.857 14.1904C160.431 13.917 157.696 13.7803 153.902 13.7461V23.5898H159.986C162.892 23.5898 163.985 22.9746 164.806 21.8125H165.284V25.0938C165.284 25.3672 165.216 25.5039 164.737 25.5039H149.562V3.15039C149.562 1.81738 149.151 1.37305 148.023 1.03125V0.723633H163.678C164.122 0.723633 164.225 0.860352 164.225 1.09961V4.41504H163.746C162.926 3.25293 161.832 2.6377 158.927 2.6377H153.902V11.8662C157.696 11.832 160.431 11.6611 162.857 11.3877V14.1904ZM184.767 0.245117C187.228 0.245117 188.766 0.552734 190.372 1.03125C191.158 1.30469 191.261 1.44141 191.261 1.68066V6.1582H190.816C190.167 4.27832 188.15 2.15918 185.245 2.15918C182.408 2.15918 180.973 4.03906 180.973 5.85059C180.973 7.62793 181.588 8.75586 185.313 10.6357C190.885 13.4727 193.004 14.9424 193.004 18.873C193.004 23.043 189.928 25.8457 183.98 25.8457C181.861 25.8457 179.127 25.5039 176.939 24.4443C176.393 24.1367 176.324 23.8975 176.324 23.5215V19.0098H176.769C177.589 21.5732 180.323 23.9316 183.741 23.9316C187.022 23.9316 188.629 22.1201 188.629 19.7617C188.629 17.0957 186.988 15.6602 183.194 13.9512C179.674 12.3789 176.7 10.3965 176.7 6.6709C176.7 2.50098 180.152 0.245117 184.767 0.245117ZM208.692 25.8457C202.335 25.8457 196.08 22.291 196.08 13.0283C196.08 3.7998 202.506 0.245117 208.214 0.245117C210.914 0.245117 212.418 0.552734 214.059 1.03125C214.845 1.30469 214.947 1.44141 214.947 1.68066V5.44043H214.503C213.614 3.56055 211.837 2.15918 208.214 2.15918C204.42 2.15918 200.421 5.06445 200.421 13.0283C200.421 21.0264 204.249 23.9316 208.692 23.9316C212.11 23.9316 214.503 22.1201 215.152 20.0693H215.631V23.5215C215.631 23.8975 215.562 24.1367 214.981 24.4443C212.999 25.4014 211.017 25.8457 208.692 25.8457ZM238.839 25.5039H234.737L234.02 23.1113L232.413 17.9844H223.629L221.271 25.5039H218.126L225.748 2.97949C226.158 1.68066 225.748 1.37305 224.962 1.03125V0.723633H230.533L238.873 24.1025C239.044 24.6152 239.01 25.0254 238.839 25.5039ZM224.21 16.0703H231.798L228.004 4.07324L224.21 16.0703ZM258.355 25.5039L246.734 5.91895V23.5898C246.734 24.2734 246.563 24.9229 246.119 25.5039H243.453V3.15039C243.453 1.81738 243.043 1.37305 241.915 1.03125V0.723633H247.418C247.623 0.723633 247.794 0.791992 247.862 0.928711L259.381 19.7275V3.15039C259.381 1.81738 258.971 1.37305 257.843 1.03125V0.723633H262.252C262.423 0.723633 262.662 0.791992 262.662 0.962891V23.5898C262.662 24.2734 262.457 24.9229 262.047 25.5039H258.355Z" fill="#3E8D60"/>
<path d="M14.5518 1.03125L14.716 0.559002L14.7053 0.555286L14.6945 0.552057L14.5518 1.03125ZM15.4404 6.1582V6.6582H15.9404V6.1582H15.4404ZM14.9961 6.1582L14.5235 6.32146L14.6398 6.6582H14.9961V6.1582ZM9.49316 10.6357L9.72005 10.1902L9.71841 10.1894L9.49316 10.6357ZM1.11914 24.4443L0.87401 24.8801L0.887375 24.8876L0.901176 24.8943L1.11914 24.4443ZM0.503906 19.0098V18.5098H0.00390625V19.0098H0.503906ZM0.948242 19.0098L1.42445 18.8574L1.31322 18.5098H0.948242V19.0098ZM7.37402 13.9512L7.57938 13.4953L7.57791 13.4946L7.37402 13.9512ZM8.94629 0.745117C11.3542 0.745117 12.8441 1.04431 14.409 1.51044L14.6945 0.552057C13.0465 0.0611576 11.4603 -0.254883 8.94629 -0.254883V0.745117ZM14.3875 1.5035C14.5768 1.56933 14.7141 1.62328 14.8141 1.66906C14.9163 1.71583 14.9626 1.74653 14.9802 1.76052C14.9925 1.77028 14.9707 1.75575 14.9531 1.71483C14.9371 1.67778 14.9404 1.65474 14.9404 1.68066H15.9404C15.9404 1.58696 15.931 1.4571 15.8712 1.31858C15.8097 1.1762 15.7132 1.06554 15.6016 0.977026C15.4033 0.819781 15.1052 0.694353 14.716 0.559002L14.3875 1.5035ZM14.9404 1.68066V6.1582H15.9404V1.68066H14.9404ZM15.4404 5.6582H14.9961V6.6582H15.4404V5.6582ZM15.4687 5.99494C14.7662 3.96145 12.5899 1.65918 9.4248 1.65918V2.65918C12.0702 2.65918 13.9272 4.59519 14.5235 6.32146L15.4687 5.99494ZM9.4248 1.65918C6.32324 1.65918 4.65234 3.75156 4.65234 5.85059H5.65234C5.65234 4.32656 6.85254 2.65918 9.4248 2.65918V1.65918ZM4.65234 5.85059C4.65234 6.81359 4.82379 7.66845 5.54246 8.52589C6.23103 9.34743 7.39448 10.1368 9.26792 11.0821L9.71841 10.1894C7.86626 9.25478 6.8593 8.54027 6.30886 7.88353C5.78851 7.2627 5.65234 6.66492 5.65234 5.85059H4.65234ZM9.26628 11.0813C12.065 12.5064 13.9146 13.5504 15.0759 14.6996C16.195 15.807 16.6836 17.023 16.6836 18.873H17.6836C17.6836 16.7924 17.1126 15.3082 15.7793 13.9888C14.4883 12.7113 12.4926 11.602 9.72005 10.1902L9.26628 11.0813ZM16.6836 18.873C16.6836 20.8248 15.9696 22.4178 14.5879 23.5342C13.1928 24.6613 11.0622 25.3457 8.16016 25.3457V26.3457C11.2054 26.3457 13.5865 25.6288 15.2163 24.312C16.8595 22.9845 17.6836 21.0912 17.6836 18.873H16.6836ZM8.16016 25.3457C6.07938 25.3457 3.42969 25.0079 1.3371 23.9943L0.901176 24.8943C3.18359 25.9999 6.00265 26.3457 8.16016 26.3457V25.3457ZM1.36427 24.0085C1.1232 23.8729 1.05782 23.7897 1.03741 23.755C1.02137 23.7278 1.00391 23.6848 1.00391 23.5215H0.00390625C0.00390625 23.7341 0.0206248 23.9988 0.175478 24.2621C0.325968 24.5179 0.568207 24.7081 0.87401 24.8801L1.36427 24.0085ZM1.00391 23.5215V19.0098H0.00390625V23.5215H1.00391ZM0.503906 19.5098H0.948242V18.5098H0.503906V19.5098ZM0.47203 19.1622C1.35532 21.9224 4.2749 24.4316 7.9209 24.4316V23.4316C4.73096 23.4316 2.18179 21.224 1.42445 18.8574L0.47203 19.1622ZM7.9209 24.4316C9.65179 24.4316 11.0069 23.9528 11.934 23.0989C12.8643 22.242 13.3086 21.0577 13.3086 19.7617H12.3086C12.3086 20.8242 11.9497 21.7248 11.2565 22.3633C10.56 23.0048 9.47126 23.4316 7.9209 23.4316V24.4316ZM13.3086 19.7617C13.3086 18.3043 12.8516 17.1517 11.8718 16.1482C10.9181 15.1715 9.48593 14.3541 7.57938 13.4953L7.16867 14.4071C9.05606 15.2572 10.3412 16.0121 11.1563 16.8469C11.9453 17.6549 12.3086 18.5531 12.3086 19.7617H13.3086ZM7.57791 13.4946C4.05132 11.9196 1.37988 10.0548 1.37988 6.6709H0.379883C0.379883 10.7381 3.65572 12.8382 7.17013 14.4077L7.57791 13.4946ZM1.37988 6.6709C1.37988 4.74138 2.17042 3.2834 3.48369 2.29358C4.81285 1.29178 6.71336 0.745117 8.94629 0.745117V-0.254883C6.56496 -0.254883 4.43227 0.326388 2.88179 1.495C1.31542 2.67559 0.379883 4.43049 0.379883 6.6709H1.37988ZM19.7471 1.03125H19.2471V1.39885L19.5979 1.50849L19.7471 1.03125ZM19.7471 0.723633V0.223633H19.2471V0.723633H19.7471ZM25.626 11.832H25.126V12.332H25.626V11.832ZM36.4951 11.832V12.332H36.9951V11.832H36.4951ZM34.957 1.03125H34.457V1.40219L34.812 1.50976L34.957 1.03125ZM34.957 0.723633V0.223633H34.457V0.723633H34.957ZM40.2207 25.5039V26.0039H40.4678L40.6179 25.8076L40.2207 25.5039ZM36.4951 25.5039H35.9951V26.0039H36.4951V25.5039ZM36.4951 13.7461H36.9951V13.2461H36.4951V13.7461ZM25.626 13.7461V13.2461H25.126V13.7461H25.626ZM25.0107 25.5039V26.0039H25.2578L25.4079 25.8076L25.0107 25.5039ZM21.2852 25.5039H20.7852V26.0039H21.2852V25.5039ZM21.7852 3.15039C21.7852 2.43922 21.6689 1.8621 21.3218 1.41324C20.9775 0.968061 20.4697 0.733234 19.8962 0.55401L19.5979 1.50849C20.1182 1.67106 20.3794 1.8293 20.5307 2.02499C20.6792 2.217 20.7852 2.52855 20.7852 3.15039H21.7852ZM20.2471 1.03125V0.723633H19.2471V1.03125H20.2471ZM19.7471 1.22363H25.2158V0.223633H19.7471V1.22363ZM25.2158 1.22363C25.2403 1.22363 25.2601 1.22575 25.2736 1.2283C25.2883 1.23106 25.2868 1.23267 25.2742 1.22639C25.262 1.22028 25.2244 1.19909 25.1882 1.15001C25.1477 1.09505 25.126 1.02756 25.126 0.962891H26.126C26.126 0.628495 25.9069 0.424713 25.7214 0.331961C25.5501 0.246295 25.3621 0.223633 25.2158 0.223633V1.22363ZM25.126 0.962891V11.832H26.126V0.962891H25.126ZM25.626 12.332H36.4951V11.332H25.626V12.332ZM36.9951 11.832V3.15039H35.9951V11.832H36.9951ZM36.9951 3.15039C36.9951 2.44644 36.89 1.86769 36.5471 1.41657C36.2052 0.966607 35.6927 0.731717 35.102 0.552738L34.812 1.50976C35.3493 1.67258 35.6059 1.83076 35.751 2.02166C35.8952 2.21141 35.9951 2.52134 35.9951 3.15039H36.9951ZM35.457 1.03125V0.723633H34.457V1.03125H35.457ZM34.957 1.22363H40.4258V0.223633H34.957V1.22363ZM40.4258 1.22363C40.4502 1.22363 40.4701 1.22575 40.4836 1.2283C40.4982 1.23106 40.4967 1.23267 40.4842 1.22639C40.4719 1.22028 40.4343 1.19909 40.3982 1.15001C40.3577 1.09505 40.3359 1.02756 40.3359 0.962891H41.3359C41.3359 0.628495 41.1169 0.424713 40.9314 0.331961C40.76 0.246295 40.5721 0.223633 40.4258 0.223633V1.22363ZM40.3359 0.962891V23.5898H41.3359V0.962891H40.3359ZM40.3359 23.5898C40.3359 24.1848 40.1894 24.7218 39.8235 25.2002L40.6179 25.8076C41.1407 25.1239 41.3359 24.362 41.3359 23.5898H40.3359ZM40.2207 25.0039H36.4951V26.0039H40.2207V25.0039ZM36.9951 25.5039V13.7461H35.9951V25.5039H36.9951ZM36.4951 13.2461H25.626V14.2461H36.4951V13.2461ZM25.126 13.7461V23.5898H26.126V13.7461H25.126ZM25.126 23.5898C25.126 24.1848 24.9794 24.7218 24.6136 25.2002L25.4079 25.8076C25.9308 25.1239 26.126 24.362 26.126 23.5898H25.126ZM25.0107 25.0039H21.2852V26.0039H25.0107V25.0039ZM21.7852 25.5039V3.15039H20.7852V25.5039H21.7852ZM65.6162 25.5039V26.0039H65.9686L66.0871 25.6721L65.6162 25.5039ZM61.5146 25.5039L61.0357 25.6476L61.1426 26.0039H61.5146V25.5039ZM60.7969 23.1113L61.2758 22.9676L61.274 22.9618L60.7969 23.1113ZM59.1904 17.9844L59.6676 17.8349L59.5577 17.4844H59.1904V17.9844ZM50.4062 17.9844V17.4844H50.0391L49.9292 17.8347L50.4062 17.9844ZM48.0479 25.5039V26.0039H48.415L48.5249 25.6535L48.0479 25.5039ZM44.9033 25.5039L44.4297 25.3436L44.2063 26.0039H44.9033V25.5039ZM52.5254 2.97949L52.9991 3.13979L53.0022 3.13006L52.5254 2.97949ZM51.7393 1.03125H51.2393V1.35907L51.5399 1.48979L51.7393 1.03125ZM51.7393 0.723633V0.223633H51.2393V0.723633H51.7393ZM57.3105 0.723633L57.7815 0.555639L57.663 0.223633H57.3105V0.723633ZM65.6504 24.1025L66.1248 23.9444L66.1213 23.9345L65.6504 24.1025ZM50.9873 16.0703L50.5106 15.9196L50.3048 16.5703H50.9873V16.0703ZM58.5752 16.0703V16.5703H59.2577L59.0519 15.9196L58.5752 16.0703ZM54.7812 4.07324L55.258 3.92248L54.7812 2.41498L54.3045 3.92248L54.7812 4.07324ZM65.6162 25.0039H61.5146V26.0039H65.6162V25.0039ZM61.9936 25.3602L61.2758 22.9677L60.318 23.255L61.0357 25.6476L61.9936 25.3602ZM61.274 22.9618L59.6676 17.8349L58.7133 18.1339L60.3197 23.2608L61.274 22.9618ZM59.1904 17.4844H50.4062V18.4844H59.1904V17.4844ZM49.9292 17.8347L47.5708 25.3543L48.5249 25.6535L50.8833 18.134L49.9292 17.8347ZM48.0479 25.0039H44.9033V26.0039H48.0479V25.0039ZM45.3769 25.6642L52.999 3.13976L52.0518 2.81922L44.4297 25.3436L45.3769 25.6642ZM53.0022 3.13006C53.217 2.44973 53.2704 1.87938 53.0227 1.41223C52.7815 0.957557 52.3195 0.738298 51.9386 0.572715L51.5399 1.48979C51.9452 1.666 52.0812 1.77145 52.1392 1.88074C52.1905 1.97756 52.2439 2.21042 52.0486 2.82893L53.0022 3.13006ZM52.2393 1.03125V0.723633H51.2393V1.03125H52.2393ZM51.7393 1.22363H57.3105V0.223633H51.7393V1.22363ZM56.8396 0.891627L65.1795 24.2705L66.1213 23.9345L57.7815 0.555639L56.8396 0.891627ZM65.176 24.2607C65.3058 24.6499 65.2853 24.9438 65.1453 25.3357L66.0871 25.6721C66.2889 25.1069 66.3368 24.5806 66.1247 23.9444L65.176 24.2607ZM50.9873 16.5703H58.5752V15.5703H50.9873V16.5703ZM59.0519 15.9196L55.258 3.92248L54.3045 4.224L58.0985 16.2211L59.0519 15.9196ZM54.3045 3.92248L50.5106 15.9196L51.464 16.2211L55.258 4.224L54.3045 3.92248ZM68.6924 1.03125H68.1924V1.39885L68.5432 1.50849L68.6924 1.03125ZM68.6924 0.723633V0.223633H68.1924V0.723633H68.6924ZM74.5371 23.5898H74.0371V24.0898H74.5371V23.5898ZM86.876 21.8125V21.3125H86.6169L86.4675 21.5242L86.876 21.8125ZM87.3545 21.8125H87.8545V21.3125H87.3545V21.8125ZM70.1963 25.5039H69.6963V26.0039H70.1963V25.5039ZM70.6963 3.15039C70.6963 2.44605 70.591 1.86974 70.2551 1.41997C69.9191 0.969992 69.4167 0.733758 68.8415 0.55401L68.5432 1.50849C69.0618 1.67054 69.3113 1.82737 69.4539 2.01826C69.5965 2.20936 69.6963 2.52172 69.6963 3.15039H70.6963ZM69.1924 1.03125V0.723633H68.1924V1.03125H69.1924ZM68.6924 1.22363H74.1611V0.223633H68.6924V1.22363ZM74.1611 1.22363C74.1717 1.22363 74.182 1.2248 74.1893 1.22632C74.1974 1.22804 74.1929 1.22828 74.1793 1.22107C74.1661 1.21407 74.1304 1.19258 74.0965 1.14537C74.0586 1.09268 74.0371 1.02729 74.0371 0.962891H75.0371C75.0371 0.6331 74.8236 0.430693 74.6472 0.337281C74.4819 0.249784 74.3012 0.223633 74.1611 0.223633V1.22363ZM74.0371 0.962891V23.5898H75.0371V0.962891H74.0371ZM74.5371 24.0898H82.0566V23.0898H74.5371V24.0898ZM82.0566 24.0898C83.5365 24.0898 84.6103 23.9345 85.4357 23.6005C86.2811 23.2584 86.8308 22.7435 87.2845 22.1008L86.4675 21.5242C86.1008 22.0436 85.6935 22.4174 85.0606 22.6735C84.4078 22.9376 83.482 23.0898 82.0566 23.0898V24.0898ZM86.876 22.3125H87.3545V21.3125H86.876V22.3125ZM86.8545 21.8125V25.0938H87.8545V21.8125H86.8545ZM86.8545 25.0938C86.8545 25.1129 86.8536 25.1239 86.8529 25.129C86.8523 25.1339 86.8524 25.1298 86.8557 25.1195C86.8592 25.1088 86.8661 25.0917 86.8788 25.0721C86.8918 25.052 86.9079 25.0339 86.9256 25.0189C86.9609 24.9892 86.9847 24.9871 86.9652 24.9918C86.9441 24.9968 86.8963 25.0039 86.8076 25.0039V26.0039C87.0513 26.0039 87.3452 25.973 87.5697 25.7838C87.8237 25.57 87.8545 25.2757 87.8545 25.0938H86.8545ZM86.8076 25.0039H70.1963V26.0039H86.8076V25.0039ZM70.6963 25.5039V3.15039H69.6963V25.5039H70.6963ZM89.6787 1.03125H89.1787V1.39885L89.5296 1.50849L89.6787 1.03125ZM89.6787 0.723633V0.223633H89.1787V0.723633H89.6787ZM95.5234 23.5898H95.0234V24.0898H95.5234V23.5898ZM107.862 21.8125V21.3125H107.603L107.454 21.5242L107.862 21.8125ZM108.341 21.8125H108.841V21.3125H108.341V21.8125ZM91.1826 25.5039H90.6826V26.0039H91.1826V25.5039ZM91.6826 3.15039C91.6826 2.44605 91.5773 1.86974 91.2415 1.41997C90.9055 0.969992 90.403 0.733758 89.8278 0.55401L89.5296 1.50849C90.0481 1.67054 90.2976 1.82737 90.4402 2.01826C90.5829 2.20936 90.6826 2.52172 90.6826 3.15039H91.6826ZM90.1787 1.03125V0.723633H89.1787V1.03125H90.1787ZM89.6787 1.22363H95.1475V0.223633H89.6787V1.22363ZM95.1475 1.22363C95.158 1.22363 95.1684 1.2248 95.1756 1.22632C95.1838 1.22804 95.1792 1.22828 95.1656 1.22107C95.1524 1.21407 95.1168 1.19258 95.0828 1.14537C95.0449 1.09268 95.0234 1.02729 95.0234 0.962891H96.0234C96.0234 0.6331 95.8099 0.430693 95.6335 0.337281C95.4682 0.249784 95.2875 0.223633 95.1475 0.223633V1.22363ZM95.0234 0.962891V23.5898H96.0234V0.962891H95.0234ZM95.5234 24.0898H103.043V23.0898H95.5234V24.0898ZM103.043 24.0898C104.523 24.0898 105.597 23.9345 106.422 23.6005C107.267 23.2584 107.817 22.7435 108.271 22.1008L107.454 21.5242C107.087 22.0436 106.68 22.4174 106.047 22.6735C105.394 22.9376 104.468 23.0898 103.043 23.0898V24.0898ZM107.862 22.3125H108.341V21.3125H107.862V22.3125ZM107.841 21.8125V25.0938H108.841V21.8125H107.841ZM107.841 25.0938C107.841 25.1129 107.84 25.1239 107.839 25.129C107.839 25.1339 107.839 25.1298 107.842 25.1195C107.846 25.1088 107.852 25.0917 107.865 25.0721C107.878 25.052 107.894 25.0339 107.912 25.0189C107.947 24.9892 107.971 24.9871 107.952 24.9918C107.93 24.9968 107.883 25.0039 107.794 25.0039V26.0039C108.038 26.0039 108.331 25.973 108.556 25.7838C108.81 25.57 108.841 25.2757 108.841 25.0938H107.841ZM107.794 25.0039H91.1826V26.0039H107.794V25.0039ZM91.6826 25.5039V3.15039H90.6826V25.5039H91.6826ZM131.583 3.18457L131.094 3.28758L131.095 3.29461L131.097 3.3016L131.583 3.18457ZM129.703 1.03125H129.203V1.39163L129.545 1.50559L129.703 1.03125ZM129.703 0.723633V0.223633H129.203V0.723633H129.703ZM134.864 0.962891L135.353 0.85546L135.351 0.848518L135.349 0.841623L134.864 0.962891ZM139.376 21.4707L138.888 21.5781L139.866 21.57L139.376 21.4707ZM143.102 3.08203L143.592 3.18133L143.593 3.17261L143.102 3.08203ZM142.247 1.03125H141.747V1.42164L142.126 1.51632L142.247 1.03125ZM142.247 0.723633V0.223633H141.747V0.723633H142.247ZM146.417 1.20215L146.904 1.31453L146.905 1.31061L146.417 1.20215ZM140.812 25.5039V26.0039H141.209L141.299 25.6163L140.812 25.5039ZM136.812 25.5039L136.326 25.6183L136.416 26.0039H136.812V25.5039ZM133.189 10.0889L133.676 9.97447L132.703 9.97243L133.189 10.0889ZM129.498 25.5039V26.0039H129.892L129.984 25.6203L129.498 25.5039ZM125.465 25.5039L124.977 25.6151L125.066 26.0039H125.465V25.5039ZM120.372 3.18457L119.883 3.28759L119.885 3.2958L120.372 3.18457ZM118.492 1.03125H117.992V1.39163L118.334 1.50559L118.492 1.03125ZM118.492 0.723633V0.223633H117.992V0.723633H118.492ZM123.688 0.99707L124.177 0.893696L124.175 0.884711L124.173 0.875802L123.688 0.99707ZM128.028 21.5391L127.539 21.6424L128.514 21.6568L128.028 21.5391ZM132.027 5.03027L132.513 5.14799L132.542 5.03064L132.513 4.91325L132.027 5.03027ZM132.072 3.08157C131.921 2.36141 131.646 1.80994 131.249 1.39195C130.854 0.976059 130.371 0.726929 129.861 0.556908L129.545 1.50559C129.958 1.64319 130.278 1.8213 130.524 2.08046C130.768 2.33752 130.972 2.70891 131.094 3.28758L132.072 3.08157ZM130.203 1.03125V0.723633H129.203V1.03125H130.203ZM129.703 1.22363H134.488V0.223633H129.703V1.22363ZM134.488 1.22363C134.463 1.22363 134.453 1.21962 134.456 1.22052C134.457 1.22097 134.46 1.22218 134.461 1.22296C134.463 1.22419 134.454 1.21956 134.44 1.20382C134.426 1.1886 134.396 1.14953 134.379 1.08416L135.349 0.841623C135.285 0.58424 135.091 0.433099 134.968 0.361025C134.836 0.282971 134.663 0.223633 134.488 0.223633V1.22363ZM134.376 1.07032L138.888 21.5781L139.864 21.3633L135.353 0.85546L134.376 1.07032ZM139.866 21.57L143.592 3.18132L142.612 2.98275L138.886 21.3714L139.866 21.57ZM143.593 3.17261C143.712 2.52969 143.77 1.94598 143.589 1.47898C143.381 0.940381 142.92 0.684004 142.368 0.546179L142.126 1.51632C142.532 1.61775 142.617 1.73735 142.657 1.83962C142.724 2.01349 142.731 2.33555 142.61 2.99145L143.593 3.17261ZM142.747 1.03125V0.723633H141.747V1.03125H142.747ZM142.247 1.22363H146.007V0.223633H142.247V1.22363ZM146.007 1.22363C146.048 1.22363 146.02 1.23639 145.977 1.19141C145.955 1.16764 145.94 1.1385 145.933 1.11164C145.928 1.08661 145.932 1.07801 145.929 1.09368L146.905 1.31061C146.969 1.025 146.914 0.726437 146.703 0.503662C146.507 0.296323 146.24 0.223633 146.007 0.223633V1.22363ZM145.93 1.08977L140.324 25.3915L141.299 25.6163L146.904 1.31453L145.93 1.08977ZM140.812 25.0039H136.812V26.0039H140.812V25.0039ZM137.299 25.3895L133.676 9.97447L132.703 10.2033L136.326 25.6183L137.299 25.3895ZM132.703 9.97243L129.012 25.3875L129.984 25.6203L133.676 10.2053L132.703 9.97243ZM129.498 25.0039H125.465V26.0039H129.498V25.0039ZM125.952 25.3927L120.86 3.07334L119.885 3.2958L124.977 25.6151L125.952 25.3927ZM120.861 3.08157C120.71 2.36141 120.435 1.80994 120.038 1.39195C119.643 0.976059 119.16 0.726929 118.65 0.556908L118.334 1.50559C118.747 1.64319 119.067 1.8213 119.313 2.08046C119.557 2.33752 119.761 2.70891 119.883 3.28758L120.861 3.08157ZM118.992 1.03125V0.723633H117.992V1.03125H118.992ZM118.492 1.22363H123.346V0.223633H118.492V1.22363ZM123.346 1.22363C123.299 1.22363 123.269 1.21262 123.259 1.20847C123.248 1.20374 123.243 1.20003 123.243 1.19952C123.242 1.19895 123.238 1.19608 123.232 1.18793C123.227 1.18079 123.212 1.15815 123.202 1.11834L124.173 0.875802C124.121 0.668884 123.987 0.514054 123.867 0.418648C123.75 0.324399 123.565 0.223633 123.346 0.223633V1.22363ZM123.198 1.10044L127.539 21.6424L128.518 21.4357L124.177 0.893696L123.198 1.10044ZM128.514 21.6568L132.513 5.14799L131.541 4.91256L127.542 21.4213L128.514 21.6568ZM132.513 4.91325L132.069 3.06754L131.097 3.3016L131.541 5.1473L132.513 4.91325ZM162.857 14.1904L162.801 14.6873L163.357 14.7499V14.1904H162.857ZM153.902 13.7461L153.907 13.2461L153.402 13.2416V13.7461H153.902ZM153.902 23.5898H153.402V24.0898H153.902V23.5898ZM164.806 21.8125V21.3125H164.547L164.397 21.5242L164.806 21.8125ZM165.284 21.8125H165.784V21.3125H165.284V21.8125ZM149.562 25.5039H149.062V26.0039H149.562V25.5039ZM148.023 1.03125H147.523V1.40219L147.878 1.50976L148.023 1.03125ZM148.023 0.723633V0.223633H147.523V0.723633H148.023ZM164.225 4.41504V4.91504H164.725V4.41504H164.225ZM163.746 4.41504L163.338 4.70338L163.487 4.91504H163.746V4.41504ZM153.902 2.6377V2.1377H153.402V2.6377H153.902ZM153.902 11.8662H153.402V12.3707L153.907 12.3662L153.902 11.8662ZM162.857 11.3877H163.357V10.8282L162.801 10.8908L162.857 11.3877ZM162.913 13.6936C160.463 13.4175 157.71 13.2804 153.907 13.2461L153.898 14.2461C157.683 14.2802 160.398 14.4165 162.801 14.6873L162.913 13.6936ZM153.402 13.7461V23.5898H154.402V13.7461H153.402ZM153.902 24.0898H159.986V23.0898H153.902V24.0898ZM159.986 24.0898C161.466 24.0898 162.54 23.9345 163.365 23.6005C164.211 23.2584 164.761 22.7435 165.214 22.1008L164.397 21.5242C164.031 22.0436 163.623 22.4174 162.99 22.6735C162.337 22.9376 161.412 23.0898 159.986 23.0898V24.0898ZM164.806 22.3125H165.284V21.3125H164.806V22.3125ZM164.784 21.8125V25.0938H165.784V21.8125H164.784ZM164.784 25.0938C164.784 25.1183 164.783 25.1338 164.782 25.1432C164.782 25.1526 164.781 25.1511 164.783 25.1425C164.786 25.1332 164.792 25.1149 164.805 25.0924C164.819 25.0691 164.837 25.0467 164.858 25.0277C164.901 24.9898 164.932 24.9864 164.912 24.9912C164.902 24.9935 164.884 24.9968 164.854 24.9995C164.824 25.0022 164.786 25.0039 164.737 25.0039V26.0039C164.986 26.0039 165.295 25.9774 165.522 25.7751C165.777 25.549 165.784 25.2384 165.784 25.0938H164.784ZM164.737 25.0039H149.562V26.0039H164.737V25.0039ZM150.062 25.5039V3.15039H149.062V25.5039H150.062ZM150.062 3.15039C150.062 2.44644 149.956 1.86769 149.614 1.41657C149.272 0.966607 148.759 0.731717 148.168 0.552738L147.878 1.50976C148.416 1.67258 148.672 1.83076 148.817 2.02166C148.962 2.21141 149.062 2.52134 149.062 3.15039H150.062ZM148.523 1.03125V0.723633H147.523V1.03125H148.523ZM148.023 1.22363H163.678V0.223633H148.023V1.22363ZM163.678 1.22363C163.766 1.22363 163.815 1.2307 163.839 1.23605C163.861 1.24122 163.841 1.24066 163.808 1.21434C163.791 1.20087 163.774 1.18349 163.759 1.1627C163.745 1.14217 163.736 1.12281 163.731 1.10775C163.721 1.08072 163.725 1.07159 163.725 1.09961H164.725C164.725 0.916581 164.685 0.632665 164.428 0.429458C164.208 0.255781 163.924 0.223633 163.678 0.223633V1.22363ZM163.725 1.09961V4.41504H164.725V1.09961H163.725ZM164.225 3.91504H163.746V4.91504H164.225V3.91504ZM164.155 4.1267C163.701 3.48405 163.151 2.96913 162.306 2.62708C161.48 2.29309 160.407 2.1377 158.927 2.1377V3.1377C160.352 3.1377 161.278 3.28992 161.931 3.55407C162.564 3.81017 162.971 4.18392 163.338 4.70338L164.155 4.1267ZM158.927 2.1377H153.902V3.1377H158.927V2.1377ZM153.402 2.6377V11.8662H154.402V2.6377H153.402ZM153.907 12.3662C157.714 12.3319 160.466 12.1603 162.913 11.8846L162.801 10.8908C160.395 11.162 157.678 11.3322 153.898 11.3662L153.907 12.3662ZM162.357 11.3877V14.1904H163.357V11.3877H162.357ZM190.372 1.03125L190.536 0.559002L190.526 0.555286L190.515 0.552057L190.372 1.03125ZM191.261 6.1582V6.6582H191.761V6.1582H191.261ZM190.816 6.1582L190.344 6.32146L190.46 6.6582H190.816V6.1582ZM185.313 10.6357L185.54 10.1902L185.539 10.1894L185.313 10.6357ZM176.939 24.4443L176.694 24.8801L176.708 24.8876L176.721 24.8943L176.939 24.4443ZM176.324 19.0098V18.5098H175.824V19.0098H176.324ZM176.769 19.0098L177.245 18.8574L177.134 18.5098H176.769V19.0098ZM183.194 13.9512L183.4 13.4953L183.398 13.4946L183.194 13.9512ZM184.767 0.745117C187.174 0.745117 188.664 1.04431 190.229 1.51044L190.515 0.552057C188.867 0.0611576 187.281 -0.254883 184.767 -0.254883V0.745117ZM190.208 1.5035C190.397 1.56933 190.534 1.62328 190.634 1.66906C190.737 1.71583 190.783 1.74653 190.801 1.76052C190.813 1.77028 190.791 1.75575 190.773 1.71483C190.757 1.67778 190.761 1.65474 190.761 1.68066H191.761C191.761 1.58696 191.751 1.4571 191.692 1.31858C191.63 1.1762 191.534 1.06554 191.422 0.977026C191.224 0.819781 190.925 0.694353 190.536 0.559002L190.208 1.5035ZM190.761 1.68066V6.1582H191.761V1.68066H190.761ZM191.261 5.6582H190.816V6.6582H191.261V5.6582ZM191.289 5.99494C190.587 3.96145 188.41 1.65918 185.245 1.65918V2.65918C187.891 2.65918 189.747 4.59519 190.344 6.32146L191.289 5.99494ZM185.245 1.65918C182.144 1.65918 180.473 3.75156 180.473 5.85059H181.473C181.473 4.32656 182.673 2.65918 185.245 2.65918V1.65918ZM180.473 5.85059C180.473 6.81359 180.644 7.66845 181.363 8.52589C182.051 9.34743 183.215 10.1368 185.088 11.0821L185.539 10.1894C183.687 9.25478 182.68 8.54027 182.129 7.88353C181.609 7.2627 181.473 6.66492 181.473 5.85059H180.473ZM185.087 11.0813C187.885 12.5064 189.735 13.5504 190.896 14.6996C192.015 15.807 192.504 17.023 192.504 18.873H193.504C193.504 16.7924 192.933 15.3082 191.6 13.9888C190.309 12.7113 188.313 11.602 185.54 10.1902L185.087 11.0813ZM192.504 18.873C192.504 20.8248 191.79 22.4178 190.408 23.5342C189.013 24.6613 186.883 25.3457 183.98 25.3457V26.3457C187.026 26.3457 189.407 25.6288 191.037 24.312C192.68 22.9845 193.504 21.0912 193.504 18.873H192.504ZM183.98 25.3457C181.9 25.3457 179.25 25.0079 177.157 23.9943L176.721 24.8943C179.004 25.9999 181.823 26.3457 183.98 26.3457V25.3457ZM177.185 24.0085C176.944 23.8729 176.878 23.7897 176.858 23.755C176.842 23.7278 176.824 23.6848 176.824 23.5215H175.824C175.824 23.7341 175.841 23.9988 175.996 24.2621C176.146 24.5179 176.389 24.7081 176.694 24.8801L177.185 24.0085ZM176.824 23.5215V19.0098H175.824V23.5215H176.824ZM176.324 19.5098H176.769V18.5098H176.324V19.5098ZM176.292 19.1622C177.176 21.9224 180.095 24.4316 183.741 24.4316V23.4316C180.551 23.4316 178.002 21.224 177.245 18.8574L176.292 19.1622ZM183.741 24.4316C185.472 24.4316 186.827 23.9528 187.754 23.0989C188.685 22.242 189.129 21.0577 189.129 19.7617H188.129C188.129 20.8242 187.77 21.7248 187.077 22.3633C186.38 23.0048 185.292 23.4316 183.741 23.4316V24.4316ZM189.129 19.7617C189.129 18.3043 188.672 17.1517 187.692 16.1482C186.738 15.1715 185.306 14.3541 183.4 13.4953L182.989 14.4071C184.876 15.2572 186.162 16.0121 186.977 16.8469C187.766 17.6549 188.129 18.5531 188.129 19.7617H189.129ZM183.398 13.4946C179.872 11.9196 177.2 10.0548 177.2 6.6709H176.2C176.2 10.7381 179.476 12.8382 182.99 14.4077L183.398 13.4946ZM177.2 6.6709C177.2 4.74138 177.991 3.2834 179.304 2.29358C180.633 1.29178 182.534 0.745117 184.767 0.745117V-0.254883C182.385 -0.254883 180.253 0.326388 178.702 1.495C177.136 2.67559 176.2 4.43049 176.2 6.6709H177.2ZM214.059 1.03125L214.223 0.559002L214.211 0.554817L214.199 0.55125L214.059 1.03125ZM214.947 5.44043V5.94043H215.447V5.44043H214.947ZM214.503 5.44043L214.051 5.65412L214.186 5.94043H214.503V5.44043ZM215.152 20.0693V19.5693H214.786L214.676 19.9184L215.152 20.0693ZM215.631 20.0693H216.131V19.5693H215.631V20.0693ZM214.981 24.4443L215.199 24.8946L215.207 24.8906L215.215 24.8862L214.981 24.4443ZM208.692 25.3457C205.6 25.3457 202.575 24.4807 200.33 22.5329C198.098 20.5958 196.58 17.5383 196.58 13.0283H195.58C195.58 17.781 197.19 21.1323 199.674 23.2882C202.147 25.4333 205.427 26.3457 208.692 26.3457V25.3457ZM196.58 13.0283C196.58 8.54013 198.137 5.48761 200.337 3.55133C202.548 1.60446 205.457 0.745117 208.214 0.745117V-0.254883C205.263 -0.254883 202.104 0.663114 199.676 2.80072C197.236 4.94892 195.58 8.28799 195.58 13.0283H196.58ZM208.214 0.745117C210.863 0.745117 212.32 1.04487 213.919 1.51125L214.199 0.55125C212.516 0.0605951 210.965 -0.254883 208.214 -0.254883V0.745117ZM213.894 1.5035C214.084 1.56933 214.221 1.62328 214.321 1.66906C214.423 1.71583 214.469 1.74653 214.487 1.76052C214.499 1.77028 214.478 1.75575 214.46 1.71483C214.444 1.67778 214.447 1.65474 214.447 1.68066H215.447C215.447 1.58696 215.438 1.4571 215.378 1.31858C215.317 1.1762 215.22 1.06554 215.108 0.977026C214.91 0.819781 214.612 0.694353 214.223 0.559002L213.894 1.5035ZM214.447 1.68066V5.44043H215.447V1.68066H214.447ZM214.947 4.94043H214.503V5.94043H214.947V4.94043ZM214.955 5.22674C214.474 4.20933 213.743 3.30593 212.635 2.66243C211.531 2.02177 210.089 1.65918 208.214 1.65918V2.65918C209.962 2.65918 211.22 2.99727 212.133 3.52727C213.041 4.05442 213.643 4.79165 214.051 5.65412L214.955 5.22674ZM208.214 1.65918C206.185 1.65918 204.093 2.4387 202.515 4.28214C200.941 6.12048 199.921 8.96644 199.921 13.0283H200.921C200.921 9.12633 201.9 6.53772 203.274 4.93246C204.644 3.3323 206.448 2.65918 208.214 2.65918V1.65918ZM199.921 13.0283C199.921 17.1006 200.895 19.9609 202.514 21.8088C204.141 23.6651 206.359 24.4316 208.692 24.4316V23.4316C206.583 23.4316 204.665 22.7455 203.266 21.1497C201.861 19.5454 200.921 16.9541 200.921 13.0283H199.921ZM208.692 24.4316C212.275 24.4316 214.899 22.5257 215.629 20.2203L214.676 19.9184C214.107 21.7145 211.946 23.4316 208.692 23.4316V24.4316ZM215.152 20.5693H215.631V19.5693H215.152V20.5693ZM215.131 20.0693V23.5215H216.131V20.0693H215.131ZM215.131 23.5215C215.131 23.6849 215.113 23.7223 215.099 23.7458C215.078 23.7795 215.008 23.8647 214.748 24.0024L215.215 24.8862C215.536 24.7164 215.791 24.5281 215.949 24.2713C216.114 24.0042 216.131 23.734 216.131 23.5215H215.131ZM214.764 23.9941C212.853 24.9168 210.945 25.3457 208.692 25.3457V26.3457C211.088 26.3457 213.145 25.8859 215.199 24.8946L214.764 23.9941ZM238.839 25.5039V26.0039H239.191L239.31 25.6721L238.839 25.5039ZM234.737 25.5039L234.258 25.6476L234.365 26.0039H234.737V25.5039ZM234.02 23.1113L234.498 22.9676L234.497 22.9618L234.02 23.1113ZM232.413 17.9844L232.89 17.8349L232.78 17.4844H232.413V17.9844ZM223.629 17.9844V17.4844H223.262L223.152 17.8347L223.629 17.9844ZM221.271 25.5039V26.0039H221.638L221.748 25.6535L221.271 25.5039ZM218.126 25.5039L217.652 25.3436L217.429 26.0039H218.126V25.5039ZM225.748 2.97949L226.222 3.13979L226.225 3.13006L225.748 2.97949ZM224.962 1.03125H224.462V1.35907L224.763 1.48979L224.962 1.03125ZM224.962 0.723633V0.223633H224.462V0.723633H224.962ZM230.533 0.723633L231.004 0.555639L230.886 0.223633H230.533V0.723633ZM238.873 24.1025L239.347 23.9444L239.344 23.9345L238.873 24.1025ZM224.21 16.0703L223.733 15.9196L223.527 16.5703H224.21V16.0703ZM231.798 16.0703V16.5703H232.48L232.275 15.9196L231.798 16.0703ZM228.004 4.07324L228.481 3.92248L228.004 2.41498L227.527 3.92248L228.004 4.07324ZM238.839 25.0039H234.737V26.0039H238.839V25.0039ZM235.216 25.3602L234.498 22.9677L233.541 23.255L234.258 25.6476L235.216 25.3602ZM234.497 22.9618L232.89 17.8349L231.936 18.1339L233.542 23.2608L234.497 22.9618ZM232.413 17.4844H223.629V18.4844H232.413V17.4844ZM223.152 17.8347L220.793 25.3543L221.748 25.6535L224.106 18.134L223.152 17.8347ZM221.271 25.0039H218.126V26.0039H221.271V25.0039ZM218.6 25.6642L226.222 3.13976L225.274 2.81922L217.652 25.3436L218.6 25.6642ZM226.225 3.13006C226.44 2.44973 226.493 1.87938 226.245 1.41223C226.004 0.957557 225.542 0.738298 225.161 0.572715L224.763 1.48979C225.168 1.666 225.304 1.77145 225.362 1.88074C225.413 1.97756 225.467 2.21042 225.271 2.82893L226.225 3.13006ZM225.462 1.03125V0.723633H224.462V1.03125H225.462ZM224.962 1.22363H230.533V0.223633H224.962V1.22363ZM230.062 0.891627L238.402 24.2705L239.344 23.9345L231.004 0.555639L230.062 0.891627ZM238.399 24.2607C238.528 24.6499 238.508 24.9438 238.368 25.3357L239.31 25.6721C239.512 25.1069 239.559 24.5806 239.347 23.9444L238.399 24.2607ZM224.21 16.5703H231.798V15.5703H224.21V16.5703ZM232.275 15.9196L228.481 3.92248L227.527 4.224L231.321 16.2211L232.275 15.9196ZM227.527 3.92248L223.733 15.9196L224.687 16.2211L228.481 4.224L227.527 3.92248ZM258.355 25.5039L257.925 25.7591L258.071 26.0039H258.355V25.5039ZM246.734 5.91895L247.164 5.6638L246.234 4.09647V5.91895H246.734ZM246.119 25.5039V26.0039H246.366L246.516 25.8076L246.119 25.5039ZM243.453 25.5039H242.953V26.0039H243.453V25.5039ZM241.915 1.03125H241.415V1.40219L241.77 1.50976L241.915 1.03125ZM241.915 0.723633V0.223633H241.415V0.723633H241.915ZM247.862 0.928711L247.415 1.15232L247.425 1.17158L247.436 1.18994L247.862 0.928711ZM259.381 19.7275L258.955 19.9888L259.881 21.5006V19.7275H259.381ZM257.843 1.03125H257.343V1.40219L257.698 1.50976L257.843 1.03125ZM257.843 0.723633V0.223633H257.343V0.723633H257.843ZM262.047 25.5039V26.0039H262.306L262.455 25.7922L262.047 25.5039ZM258.785 25.2488L247.164 5.6638L246.304 6.17409L257.925 25.7591L258.785 25.2488ZM246.234 5.91895V23.5898H247.234V5.91895H246.234ZM246.234 23.5898C246.234 24.1848 246.088 24.7218 245.722 25.2002L246.516 25.8076C247.039 25.1239 247.234 24.362 247.234 23.5898H246.234ZM246.119 25.0039H243.453V26.0039H246.119V25.0039ZM243.953 25.5039V3.15039H242.953V25.5039H243.953ZM243.953 3.15039C243.953 2.44644 243.848 1.86769 243.505 1.41657C243.163 0.966607 242.651 0.731717 242.06 0.552738L241.77 1.50976C242.307 1.67258 242.564 1.83076 242.709 2.02166C242.853 2.21141 242.953 2.52134 242.953 3.15039H243.953ZM242.415 1.03125V0.723633H241.415V1.03125H242.415ZM241.915 1.22363H247.418V0.223633H241.915V1.22363ZM247.418 1.22363C247.442 1.22363 247.46 1.22565 247.473 1.22802C247.486 1.23041 247.49 1.23268 247.488 1.23181C247.486 1.2309 247.475 1.22574 247.461 1.21269C247.445 1.19906 247.428 1.17893 247.415 1.15232L248.31 0.705104C248.114 0.314779 247.695 0.223633 247.418 0.223633V1.22363ZM247.436 1.18994L258.955 19.9888L259.807 19.4663L248.289 0.667484L247.436 1.18994ZM259.881 19.7275V3.15039H258.881V19.7275H259.881ZM259.881 3.15039C259.881 2.44644 259.776 1.86769 259.433 1.41657C259.091 0.966607 258.578 0.731717 257.988 0.552738L257.698 1.50976C258.235 1.67258 258.492 1.83076 258.637 2.02166C258.781 2.21141 258.881 2.52134 258.881 3.15039H259.881ZM258.343 1.03125V0.723633H257.343V1.03125H258.343ZM257.843 1.22363H262.252V0.223633H257.843V1.22363ZM262.252 1.22363C262.263 1.22363 262.278 1.22487 262.292 1.2277C262.308 1.2307 262.312 1.23342 262.307 1.23104C262.304 1.22959 262.272 1.21435 262.236 1.1715C262.195 1.12133 262.162 1.04733 262.162 0.962891H263.162C263.162 0.595378 262.893 0.402071 262.735 0.327306C262.571 0.249427 262.391 0.223633 262.252 0.223633V1.22363ZM262.162 0.962891V23.5898H263.162V0.962891H262.162ZM262.162 23.5898C262.162 24.1685 261.99 24.7175 261.638 25.2156L262.455 25.7922C262.924 25.1282 263.162 24.3783 263.162 23.5898H262.162ZM262.047 25.0039H258.355V26.0039H262.047V25.0039Z" fill="#3E8D60"/>
</svg>
