<svg width="406" height="406" viewBox="0 0 406 406" fill="none" xmlns="http://www.w3.org/2000/svg">
<rect width="406" height="406" fill="#3E8D60"/>
<path fill-rule="evenodd" clip-rule="evenodd" d="M304.5 315.609C303.804 315.609 303.136 315.809 302.644 316.164C302.152 316.519 301.875 317.001 301.875 317.503V344.014C301.875 344.516 302.152 344.998 302.644 345.353C303.136 345.708 303.804 345.908 304.5 345.908C305.196 345.908 305.864 345.708 306.356 345.353C306.848 344.998 307.125 344.516 307.125 344.014V317.503C307.125 317.001 306.848 316.519 306.356 316.164C305.864 315.809 305.196 315.609 304.5 315.609ZM312.375 315.609C312.027 315.609 311.693 315.709 311.447 315.887C311.201 316.064 311.062 316.305 311.062 316.556V344.961C311.062 345.212 311.201 345.453 311.447 345.631C311.693 345.808 312.027 345.908 312.375 345.908C312.723 345.908 313.057 345.808 313.303 345.631C313.549 345.453 313.688 345.212 313.688 344.961V316.556C313.688 316.305 313.549 316.064 313.303 315.887C313.057 315.709 312.723 315.609 312.375 315.609ZM318.938 315.609C318.589 315.609 318.256 315.709 318.009 315.887C317.763 316.064 317.625 316.305 317.625 316.556V344.961C317.625 345.212 317.763 345.453 318.009 345.631C318.256 345.808 318.589 345.908 318.938 345.908C319.286 345.908 319.619 345.808 319.866 345.631C320.112 345.453 320.25 345.212 320.25 344.961V316.556C320.25 316.305 320.112 316.064 319.866 315.887C319.619 315.709 319.286 315.609 318.938 315.609ZM345.188 317.03C345.188 316.653 345.395 316.292 345.764 316.025C346.133 315.759 346.634 315.609 347.156 315.609C347.678 315.609 348.179 315.759 348.548 316.025C348.918 316.292 349.125 316.653 349.125 317.03V344.488C349.125 344.864 348.918 345.226 348.548 345.492C348.179 345.758 347.678 345.908 347.156 345.908C346.634 345.908 346.133 345.758 345.764 345.492C345.395 345.226 345.188 344.864 345.188 344.488V317.03ZM326.812 317.503C326.812 317.001 327.089 316.519 327.581 316.164C328.074 315.809 328.741 315.609 329.438 315.609C330.134 315.609 330.801 315.809 331.294 316.164C331.786 316.519 332.062 317.001 332.062 317.503V344.014C332.062 344.516 331.786 344.998 331.294 345.353C330.801 345.708 330.134 345.908 329.438 345.908C328.741 345.908 328.074 345.708 327.581 345.353C327.089 344.998 326.812 344.516 326.812 344.014V317.503ZM338.625 315.609C337.929 315.609 337.261 315.809 336.769 316.164C336.277 316.519 336 317.001 336 317.503V344.014C336 344.516 336.277 344.998 336.769 345.353C337.261 345.708 337.929 345.908 338.625 345.908C339.321 345.908 339.989 345.708 340.481 345.353C340.973 344.998 341.25 344.516 341.25 344.014V317.503C341.25 317.001 340.973 316.519 340.481 316.164C339.989 315.809 339.321 315.609 338.625 315.609Z" fill="#3E8D60"/>
<rect x="45" y="68.001" width="22.6605" height="85.8223" fill="white"/>
<rect x="45" y="90.8857" width="22.8859" height="84.9767" transform="rotate(-90 45 90.8857)" fill="white"/>
<rect x="45.0005" y="360.822" width="22.8859" height="84.9767" transform="rotate(-90 45.0005 360.822)" fill="white"/>
<rect x="67.6606" y="360.822" width="22.6605" height="85.8223" transform="rotate(-180 67.6606 360.822)" fill="white"/>
<rect width="406" height="406" rx="10" fill="#3E8D60"/>
<path fill-rule="evenodd" clip-rule="evenodd" d="M304.5 315.609C303.804 315.609 303.136 315.809 302.644 316.164C302.152 316.519 301.875 317.001 301.875 317.503V344.014C301.875 344.516 302.152 344.998 302.644 345.353C303.136 345.708 303.804 345.908 304.5 345.908C305.196 345.908 305.864 345.708 306.356 345.353C306.848 344.998 307.125 344.516 307.125 344.014V317.503C307.125 317.001 306.848 316.519 306.356 316.164C305.864 315.809 305.196 315.609 304.5 315.609ZM312.375 315.609C312.027 315.609 311.693 315.709 311.447 315.887C311.201 316.064 311.062 316.305 311.062 316.556V344.961C311.062 345.212 311.201 345.453 311.447 345.631C311.693 345.808 312.027 345.908 312.375 345.908C312.723 345.908 313.057 345.808 313.303 345.631C313.549 345.453 313.688 345.212 313.688 344.961V316.556C313.688 316.305 313.549 316.064 313.303 315.887C313.057 315.709 312.723 315.609 312.375 315.609ZM318.938 315.609C318.589 315.609 318.256 315.709 318.009 315.887C317.763 316.064 317.625 316.305 317.625 316.556V344.961C317.625 345.212 317.763 345.453 318.009 345.631C318.256 345.808 318.589 345.908 318.938 345.908C319.286 345.908 319.619 345.808 319.866 345.631C320.112 345.453 320.25 345.212 320.25 344.961V316.556C320.25 316.305 320.112 316.064 319.866 315.887C319.619 315.709 319.286 315.609 318.938 315.609ZM345.188 317.03C345.188 316.653 345.395 316.292 345.764 316.025C346.133 315.759 346.634 315.609 347.156 315.609C347.678 315.609 348.179 315.759 348.548 316.025C348.918 316.292 349.125 316.653 349.125 317.03V344.488C349.125 344.864 348.918 345.226 348.548 345.492C348.179 345.758 347.678 345.908 347.156 345.908C346.634 345.908 346.133 345.758 345.764 345.492C345.395 345.226 345.188 344.864 345.188 344.488V317.03ZM326.812 317.503C326.812 317.001 327.089 316.519 327.581 316.164C328.074 315.809 328.741 315.609 329.438 315.609C330.134 315.609 330.801 315.809 331.294 316.164C331.786 316.519 332.062 317.001 332.062 317.503V344.014C332.062 344.516 331.786 344.998 331.294 345.353C330.801 345.708 330.134 345.908 329.438 345.908C328.741 345.908 328.074 345.708 327.581 345.353C327.089 344.998 326.812 344.516 326.812 344.014V317.503ZM338.625 315.609C337.929 315.609 337.261 315.809 336.769 316.164C336.277 316.519 336 317.001 336 317.503V344.014C336 344.516 336.277 344.998 336.769 345.353C337.261 345.708 337.929 345.908 338.625 345.908C339.321 345.908 339.989 345.708 340.481 345.353C340.973 344.998 341.25 344.516 341.25 344.014V317.503C341.25 317.001 340.973 316.519 340.481 316.164C339.989 315.809 339.321 315.609 338.625 315.609Z" fill="#3E8D60"/>
<rect x="33" y="68.001" width="22.6605" height="85.8223" fill="white"/>
<rect x="33" y="90.8857" width="22.8859" height="84.9767" transform="rotate(-90 33 90.8857)" fill="white"/>
<rect x="33.0005" y="360.822" width="22.8859" height="84.9767" transform="rotate(-90 33.0005 360.822)" fill="white"/>
<rect x="55.6606" y="360.822" width="22.6605" height="85.8223" transform="rotate(-180 55.6606 360.822)" fill="white"/>
<path d="M215.902 68H372.902V361H215.902V68Z" fill="white"/>
<path d="M338.902 77C338.902 101.802 320.059 121 297.902 121C275.746 121 256.902 101.802 256.902 77C256.902 52.1982 275.746 33 297.902 33C320.059 33 338.902 52.1982 338.902 77Z" stroke="white" stroke-width="18"/>
<path d="M307.754 346.296V315.693H312.692V346.296H307.754ZM315.159 346.296V315.693H320.094V346.296H315.159ZM322.562 346.296V315.693H325.032V346.296H322.562ZM329.967 346.296V315.693H334.902V346.296H329.967ZM337.37 346.296V315.693H344.775V346.296H337.37ZM347.243 346.296V315.693H349.71V346.296H347.243ZM354.645 346.296V315.693H362.051V346.296H354.645Z" fill="#3E8D60"/>
</svg>
