<svg width="107" height="97" viewBox="0 0 107 97" fill="none" xmlns="http://www.w3.org/2000/svg">
<path d="M64.2852 69.75L64.2852 80.375C64.2852 83.1929 63.1686 85.8954 61.1812 87.888C59.1938 89.8806 56.4984 91 53.6878 91L16.5968 91C13.7862 91 11.0907 89.8806 9.10334 87.888C7.11594 85.8954 5.99943 83.1929 5.99943 80.375L5.99944 16.625C5.99944 13.8071 7.11595 11.1046 9.10335 9.112C11.0907 7.11942 13.7862 6 16.5968 6L53.6878 6.00001C56.4984 6.00001 59.1939 7.11943 61.1813 9.112C63.1687 11.1046 64.2852 13.8071 64.2852 16.625L64.2852 27.25" stroke="black" stroke-width="11" stroke-linecap="round" stroke-linejoin="round"/>
<path d="M37.5723 48.4999L101.322 48.4999M101.322 48.4999L85.3848 64.2856M101.322 48.4999L85.3848 32.7142" stroke="black" stroke-width="11" stroke-linecap="round" stroke-linejoin="round"/>
</svg>
