<svg width="263" height="26" viewBox="0 0 263 26" fill="none" xmlns="http://www.w3.org/2000/svg">
<mask id="path-1-outside-1_353_1631" maskUnits="userSpaceOnUse" x="-1" y="-1" width="265" height="28" fill="black">
<rect fill="white" x="-1" y="-1" width="265" height="28"/>
<path d="M8.94629 0.245117C11.4072 0.245117 12.9453 0.552734 14.5518 1.03125C15.3379 1.30469 15.4404 1.44141 15.4404 1.68066V6.1582H14.9961C14.3467 4.27832 12.3301 2.15918 9.4248 2.15918C6.58789 2.15918 5.15234 4.03906 5.15234 5.85059C5.15234 7.62793 5.76758 8.75586 9.49316 10.6357C15.0645 13.4727 17.1836 14.9424 17.1836 18.873C17.1836 23.043 14.1074 25.8457 8.16016 25.8457C6.04102 25.8457 3.30664 25.5039 1.11914 24.4443C0.572266 24.1367 0.503906 23.8975 0.503906 23.5215V19.0098H0.948242C1.76855 21.5732 4.50293 23.9316 7.9209 23.9316C11.2021 23.9316 12.8086 22.1201 12.8086 19.7617C12.8086 17.0957 11.168 15.6602 7.37402 13.9512C3.85352 12.3789 0.879883 10.3965 0.879883 6.6709C0.879883 2.50098 4.33203 0.245117 8.94629 0.245117ZM21.2852 3.15039C21.2852 1.81738 20.8408 1.37305 19.7471 1.03125V0.723633H25.2158C25.4209 0.723633 25.626 0.791992 25.626 0.962891V11.832H36.4951V3.15039C36.4951 1.81738 36.085 1.37305 34.957 1.03125V0.723633H40.4258C40.6309 0.723633 40.8359 0.791992 40.8359 0.962891V23.5898C40.8359 24.2734 40.665 24.9229 40.2207 25.5039H36.4951V13.7461H25.626V23.5898C25.626 24.2734 25.4551 24.9229 25.0107 25.5039H21.2852V3.15039ZM65.6162 25.5039H61.5146L60.7969 23.1113L59.1904 17.9844H50.4062L48.0479 25.5039H44.9033L52.5254 2.97949C52.9355 1.68066 52.5254 1.37305 51.7393 1.03125V0.723633H57.3105L65.6504 24.1025C65.8213 24.6152 65.7871 25.0254 65.6162 25.5039ZM50.9873 16.0703H58.5752L54.7812 4.07324L50.9873 16.0703ZM70.1963 3.15039C70.1963 1.81738 69.7861 1.37305 68.6924 1.03125V0.723633H74.1611C74.332 0.723633 74.5371 0.791992 74.5371 0.962891V23.5898H82.0566C84.9619 23.5898 86.0557 22.9746 86.876 21.8125H87.3545V25.0938C87.3545 25.3672 87.252 25.5039 86.8076 25.5039H70.1963V3.15039ZM91.1826 3.15039C91.1826 1.81738 90.7725 1.37305 89.6787 1.03125V0.723633H95.1475C95.3184 0.723633 95.5234 0.791992 95.5234 0.962891V23.5898H103.043C105.948 23.5898 107.042 22.9746 107.862 21.8125H108.341V25.0938C108.341 25.3672 108.238 25.5039 107.794 25.5039H91.1826V3.15039ZM131.583 3.18457C131.31 1.88574 130.626 1.33887 129.703 1.03125V0.723633H134.488C134.625 0.723633 134.83 0.826172 134.864 0.962891L139.376 21.4707L143.102 3.08203C143.341 1.7832 143.204 1.27051 142.247 1.03125V0.723633H146.007C146.28 0.723633 146.485 0.894531 146.417 1.20215L140.812 25.5039H136.812L133.189 10.0889L129.498 25.5039H125.465L120.372 3.18457C120.099 1.88574 119.415 1.33887 118.492 1.03125V0.723633H123.346C123.482 0.723633 123.653 0.860352 123.688 0.99707L128.028 21.5391L132.027 5.03027L131.583 3.18457ZM162.857 14.1904C160.431 13.917 157.696 13.7803 153.902 13.7461V23.5898H159.986C162.892 23.5898 163.985 22.9746 164.806 21.8125H165.284V25.0938C165.284 25.3672 165.216 25.5039 164.737 25.5039H149.562V3.15039C149.562 1.81738 149.151 1.37305 148.023 1.03125V0.723633H163.678C164.122 0.723633 164.225 0.860352 164.225 1.09961V4.41504H163.746C162.926 3.25293 161.832 2.6377 158.927 2.6377H153.902V11.8662C157.696 11.832 160.431 11.6611 162.857 11.3877V14.1904ZM184.767 0.245117C187.228 0.245117 188.766 0.552734 190.372 1.03125C191.158 1.30469 191.261 1.44141 191.261 1.68066V6.1582H190.816C190.167 4.27832 188.15 2.15918 185.245 2.15918C182.408 2.15918 180.973 4.03906 180.973 5.85059C180.973 7.62793 181.588 8.75586 185.313 10.6357C190.885 13.4727 193.004 14.9424 193.004 18.873C193.004 23.043 189.928 25.8457 183.98 25.8457C181.861 25.8457 179.127 25.5039 176.939 24.4443C176.393 24.1367 176.324 23.8975 176.324 23.5215V19.0098H176.769C177.589 21.5732 180.323 23.9316 183.741 23.9316C187.022 23.9316 188.629 22.1201 188.629 19.7617C188.629 17.0957 186.988 15.6602 183.194 13.9512C179.674 12.3789 176.7 10.3965 176.7 6.6709C176.7 2.50098 180.152 0.245117 184.767 0.245117ZM208.692 25.8457C202.335 25.8457 196.08 22.291 196.08 13.0283C196.08 3.7998 202.506 0.245117 208.214 0.245117C210.914 0.245117 212.418 0.552734 214.059 1.03125C214.845 1.30469 214.947 1.44141 214.947 1.68066V5.44043H214.503C213.614 3.56055 211.837 2.15918 208.214 2.15918C204.42 2.15918 200.421 5.06445 200.421 13.0283C200.421 21.0264 204.249 23.9316 208.692 23.9316C212.11 23.9316 214.503 22.1201 215.152 20.0693H215.631V23.5215C215.631 23.8975 215.562 24.1367 214.981 24.4443C212.999 25.4014 211.017 25.8457 208.692 25.8457ZM238.839 25.5039H234.737L234.02 23.1113L232.413 17.9844H223.629L221.271 25.5039H218.126L225.748 2.97949C226.158 1.68066 225.748 1.37305 224.962 1.03125V0.723633H230.533L238.873 24.1025C239.044 24.6152 239.01 25.0254 238.839 25.5039ZM224.21 16.0703H231.798L228.004 4.07324L224.21 16.0703ZM258.355 25.5039L246.734 5.91895V23.5898C246.734 24.2734 246.563 24.9229 246.119 25.5039H243.453V3.15039C243.453 1.81738 243.043 1.37305 241.915 1.03125V0.723633H247.418C247.623 0.723633 247.794 0.791992 247.862 0.928711L259.381 19.7275V3.15039C259.381 1.81738 258.971 1.37305 257.843 1.03125V0.723633H262.252C262.423 0.723633 262.662 0.791992 262.662 0.962891V23.5898C262.662 24.2734 262.457 24.9229 262.047 25.5039H258.355Z"/>
</mask>
<path d="M8.94629 0.245117C11.4072 0.245117 12.9453 0.552734 14.5518 1.03125C15.3379 1.30469 15.4404 1.44141 15.4404 1.68066V6.1582H14.9961C14.3467 4.27832 12.3301 2.15918 9.4248 2.15918C6.58789 2.15918 5.15234 4.03906 5.15234 5.85059C5.15234 7.62793 5.76758 8.75586 9.49316 10.6357C15.0645 13.4727 17.1836 14.9424 17.1836 18.873C17.1836 23.043 14.1074 25.8457 8.16016 25.8457C6.04102 25.8457 3.30664 25.5039 1.11914 24.4443C0.572266 24.1367 0.503906 23.8975 0.503906 23.5215V19.0098H0.948242C1.76855 21.5732 4.50293 23.9316 7.9209 23.9316C11.2021 23.9316 12.8086 22.1201 12.8086 19.7617C12.8086 17.0957 11.168 15.6602 7.37402 13.9512C3.85352 12.3789 0.879883 10.3965 0.879883 6.6709C0.879883 2.50098 4.33203 0.245117 8.94629 0.245117ZM21.2852 3.15039C21.2852 1.81738 20.8408 1.37305 19.7471 1.03125V0.723633H25.2158C25.4209 0.723633 25.626 0.791992 25.626 0.962891V11.832H36.4951V3.15039C36.4951 1.81738 36.085 1.37305 34.957 1.03125V0.723633H40.4258C40.6309 0.723633 40.8359 0.791992 40.8359 0.962891V23.5898C40.8359 24.2734 40.665 24.9229 40.2207 25.5039H36.4951V13.7461H25.626V23.5898C25.626 24.2734 25.4551 24.9229 25.0107 25.5039H21.2852V3.15039ZM65.6162 25.5039H61.5146L60.7969 23.1113L59.1904 17.9844H50.4062L48.0479 25.5039H44.9033L52.5254 2.97949C52.9355 1.68066 52.5254 1.37305 51.7393 1.03125V0.723633H57.3105L65.6504 24.1025C65.8213 24.6152 65.7871 25.0254 65.6162 25.5039ZM50.9873 16.0703H58.5752L54.7812 4.07324L50.9873 16.0703ZM70.1963 3.15039C70.1963 1.81738 69.7861 1.37305 68.6924 1.03125V0.723633H74.1611C74.332 0.723633 74.5371 0.791992 74.5371 0.962891V23.5898H82.0566C84.9619 23.5898 86.0557 22.9746 86.876 21.8125H87.3545V25.0938C87.3545 25.3672 87.252 25.5039 86.8076 25.5039H70.1963V3.15039ZM91.1826 3.15039C91.1826 1.81738 90.7725 1.37305 89.6787 1.03125V0.723633H95.1475C95.3184 0.723633 95.5234 0.791992 95.5234 0.962891V23.5898H103.043C105.948 23.5898 107.042 22.9746 107.862 21.8125H108.341V25.0938C108.341 25.3672 108.238 25.5039 107.794 25.5039H91.1826V3.15039ZM131.583 3.18457C131.31 1.88574 130.626 1.33887 129.703 1.03125V0.723633H134.488C134.625 0.723633 134.83 0.826172 134.864 0.962891L139.376 21.4707L143.102 3.08203C143.341 1.7832 143.204 1.27051 142.247 1.03125V0.723633H146.007C146.28 0.723633 146.485 0.894531 146.417 1.20215L140.812 25.5039H136.812L133.189 10.0889L129.498 25.5039H125.465L120.372 3.18457C120.099 1.88574 119.415 1.33887 118.492 1.03125V0.723633H123.346C123.482 0.723633 123.653 0.860352 123.688 0.99707L128.028 21.5391L132.027 5.03027L131.583 3.18457ZM162.857 14.1904C160.431 13.917 157.696 13.7803 153.902 13.7461V23.5898H159.986C162.892 23.5898 163.985 22.9746 164.806 21.8125H165.284V25.0938C165.284 25.3672 165.216 25.5039 164.737 25.5039H149.562V3.15039C149.562 1.81738 149.151 1.37305 148.023 1.03125V0.723633H163.678C164.122 0.723633 164.225 0.860352 164.225 1.09961V4.41504H163.746C162.926 3.25293 161.832 2.6377 158.927 2.6377H153.902V11.8662C157.696 11.832 160.431 11.6611 162.857 11.3877V14.1904ZM184.767 0.245117C187.228 0.245117 188.766 0.552734 190.372 1.03125C191.158 1.30469 191.261 1.44141 191.261 1.68066V6.1582H190.816C190.167 4.27832 188.15 2.15918 185.245 2.15918C182.408 2.15918 180.973 4.03906 180.973 5.85059C180.973 7.62793 181.588 8.75586 185.313 10.6357C190.885 13.4727 193.004 14.9424 193.004 18.873C193.004 23.043 189.928 25.8457 183.98 25.8457C181.861 25.8457 179.127 25.5039 176.939 24.4443C176.393 24.1367 176.324 23.8975 176.324 23.5215V19.0098H176.769C177.589 21.5732 180.323 23.9316 183.741 23.9316C187.022 23.9316 188.629 22.1201 188.629 19.7617C188.629 17.0957 186.988 15.6602 183.194 13.9512C179.674 12.3789 176.7 10.3965 176.7 6.6709C176.7 2.50098 180.152 0.245117 184.767 0.245117ZM208.692 25.8457C202.335 25.8457 196.08 22.291 196.08 13.0283C196.08 3.7998 202.506 0.245117 208.214 0.245117C210.914 0.245117 212.418 0.552734 214.059 1.03125C214.845 1.30469 214.947 1.44141 214.947 1.68066V5.44043H214.503C213.614 3.56055 211.837 2.15918 208.214 2.15918C204.42 2.15918 200.421 5.06445 200.421 13.0283C200.421 21.0264 204.249 23.9316 208.692 23.9316C212.11 23.9316 214.503 22.1201 215.152 20.0693H215.631V23.5215C215.631 23.8975 215.562 24.1367 214.981 24.4443C212.999 25.4014 211.017 25.8457 208.692 25.8457ZM238.839 25.5039H234.737L234.02 23.1113L232.413 17.9844H223.629L221.271 25.5039H218.126L225.748 2.97949C226.158 1.68066 225.748 1.37305 224.962 1.03125V0.723633H230.533L238.873 24.1025C239.044 24.6152 239.01 25.0254 238.839 25.5039ZM224.21 16.0703H231.798L228.004 4.07324L224.21 16.0703ZM258.355 25.5039L246.734 5.91895V23.5898C246.734 24.2734 246.563 24.9229 246.119 25.5039H243.453V3.15039C243.453 1.81738 243.043 1.37305 241.915 1.03125V0.723633H247.418C247.623 0.723633 247.794 0.791992 247.862 0.928711L259.381 19.7275V3.15039C259.381 1.81738 258.971 1.37305 257.843 1.03125V0.723633H262.252C262.423 0.723633 262.662 0.791992 262.662 0.962891V23.5898C262.662 24.2734 262.457 24.9229 262.047 25.5039H258.355Z" fill="#3E8D60"/>
<path d="M14.5518 1.03125L14.8803 0.0867538L14.8589 0.0793228L14.8372 0.0728645L14.5518 1.03125ZM15.4404 6.1582V7.1582H16.4404V6.1582H15.4404ZM14.9961 6.1582L14.0509 6.48472L14.2836 7.1582H14.9961V6.1582ZM9.49316 10.6357L9.94693 9.74461L9.94365 9.74296L9.49316 10.6357ZM1.11914 24.4443L0.628879 25.3159L0.65561 25.3309L0.683212 25.3443L1.11914 24.4443ZM0.503906 19.0098V18.0098H-0.496094V19.0098H0.503906ZM0.948242 19.0098L1.90067 18.705L1.67819 18.0098H0.948242V19.0098ZM7.37402 13.9512L7.78473 13.0394L7.78181 13.0381L7.37402 13.9512ZM8.94629 1.24512C11.3011 1.24512 12.743 1.53589 14.2663 1.98964L14.8372 0.0728645C13.1476 -0.43042 11.5133 -0.754883 8.94629 -0.754883V1.24512ZM14.2232 1.97575C14.4052 2.03905 14.5262 2.08714 14.606 2.12369C14.6902 2.16221 14.6962 2.17343 14.6695 2.15227C14.6321 2.12264 14.5512 2.04552 14.494 1.91296C14.4401 1.78812 14.4404 1.68864 14.4404 1.68066H16.4404C16.4404 1.55306 16.4279 1.34676 16.3303 1.12046C16.2293 0.886421 16.0735 0.713173 15.9123 0.585278C15.6397 0.369055 15.2655 0.220737 14.8803 0.0867538L14.2232 1.97575ZM14.4404 1.68066V6.1582H16.4404V1.68066H14.4404ZM15.4404 5.1582H14.9961V7.1582H15.4404V5.1582ZM15.9413 5.83168C15.1857 3.64458 12.8498 1.15918 9.4248 1.15918V3.15918C11.8104 3.15918 13.5076 4.91206 14.0509 6.48472L15.9413 5.83168ZM9.4248 1.15918C6.0586 1.15918 4.15234 3.46406 4.15234 5.85059H6.15234C6.15234 4.61406 7.11718 3.15918 9.4248 3.15918V1.15918ZM4.15234 5.85059C4.15234 6.88792 4.34143 7.87132 5.15926 8.84707C5.91689 9.75101 7.1586 10.5778 9.04268 11.5285L9.94365 9.74296C8.10215 8.81376 7.17344 8.13668 6.69206 7.56235C6.27087 7.05983 6.15234 6.59059 6.15234 5.85059H4.15234ZM9.0394 11.5269C11.8512 12.9586 13.6277 13.97 14.7242 15.055C15.7362 16.0564 16.1836 17.1383 16.1836 18.873H18.1836C18.1836 16.6771 17.5714 15.0588 16.131 13.6334C14.7751 12.2917 12.7065 11.1498 9.94693 9.74462L9.0394 11.5269ZM16.1836 18.873C16.1836 20.6916 15.5247 22.1345 14.2737 23.1452C12.9959 24.1776 10.9906 24.8457 8.16016 24.8457V26.8457C11.2769 26.8457 13.7834 26.1125 15.5305 24.701C17.3044 23.2678 18.1836 21.2244 18.1836 18.873H16.1836ZM8.16016 24.8457C6.11774 24.8457 3.55275 24.512 1.55507 23.5444L0.683212 25.3443C3.06053 26.4958 5.96429 26.8457 8.16016 26.8457V24.8457ZM1.6094 23.5728C1.51029 23.517 1.4626 23.4807 1.44389 23.4647C1.42835 23.4513 1.4457 23.463 1.46838 23.5015C1.47922 23.52 1.48827 23.5395 1.49513 23.5585C1.50185 23.5772 1.50495 23.5911 1.50615 23.5975C1.50724 23.6034 1.50649 23.6015 1.5056 23.5885C1.50468 23.5751 1.50391 23.5542 1.50391 23.5215H-0.496094C-0.496094 23.7587 -0.479747 24.1343 -0.255489 24.5156C-0.0399595 24.882 0.29071 25.1257 0.628879 25.3159L1.6094 23.5728ZM1.50391 23.5215V19.0098H-0.496094V23.5215H1.50391ZM0.503906 20.0098H0.948242V18.0098H0.503906V20.0098ZM-0.00418198 19.3145C0.942093 22.2716 4.04687 24.9316 7.9209 24.9316V22.9316C4.95899 22.9316 2.59502 20.8748 1.90067 18.705L-0.00418198 19.3145ZM7.9209 24.9316C9.74205 24.9316 11.2303 24.4267 12.2727 23.4666C13.3216 22.5005 13.8086 21.1744 13.8086 19.7617H11.8086C11.8086 20.7074 11.4924 21.4663 10.9177 21.9955C10.3366 22.5308 9.38099 22.9316 7.9209 22.9316V24.9316ZM13.8086 19.7617C13.8086 18.1799 13.3048 16.9001 12.2295 15.7989C11.2065 14.7512 9.70087 13.9025 7.78473 13.0394L6.96332 14.8629C8.84112 15.7088 10.0528 16.4324 10.7985 17.1962C11.4921 17.9065 11.8086 18.6775 11.8086 19.7617H13.8086ZM7.78181 13.0381C4.24912 11.4604 1.87988 9.71321 1.87988 6.6709H-0.120117C-0.120117 11.0798 3.45792 13.2974 6.96624 14.8643L7.78181 13.0381ZM1.87988 6.6709C1.87988 4.89682 2.59792 3.5873 3.78463 2.69286C5.00313 1.77447 6.78757 1.24512 8.94629 1.24512V-0.754883C6.49075 -0.754883 4.24198 -0.156305 2.58085 1.09571C0.88792 2.37169 -0.120117 4.27505 -0.120117 6.6709H1.87988ZM19.7471 1.03125H18.7471V1.76644L19.4488 1.98573L19.7471 1.03125ZM19.7471 0.723633V-0.276367H18.7471V0.723633H19.7471ZM25.626 11.832H24.626V12.832H25.626V11.832ZM36.4951 11.832V12.832H37.4951V11.832H36.4951ZM34.957 1.03125H33.957V1.77312L34.667 1.98827L34.957 1.03125ZM34.957 0.723633V-0.276367H33.957V0.723633H34.957ZM40.2207 25.5039V26.5039H40.7149L41.0151 26.1114L40.2207 25.5039ZM36.4951 25.5039H35.4951V26.5039H36.4951V25.5039ZM36.4951 13.7461H37.4951V12.7461H36.4951V13.7461ZM25.626 13.7461V12.7461H24.626V13.7461H25.626ZM25.0107 25.5039V26.5039H25.5049L25.8051 26.1114L25.0107 25.5039ZM21.2852 25.5039H20.2852V26.5039H21.2852V25.5039ZM22.2852 3.15039C22.2852 2.39455 22.1638 1.68465 21.7173 1.10737C21.2766 0.537439 20.6455 0.26432 20.0453 0.0767708L19.4488 1.98573C19.9424 2.13998 20.0804 2.25992 20.1352 2.33086C20.1844 2.39445 20.2852 2.57322 20.2852 3.15039H22.2852ZM20.7471 1.03125V0.723633H18.7471V1.03125H20.7471ZM19.7471 1.72363H25.2158V-0.276367H19.7471V1.72363ZM25.2158 1.72363C25.2135 1.72363 25.2019 1.72359 25.1808 1.71961C25.1621 1.71606 25.1142 1.7054 25.0506 1.6736C24.9877 1.64216 24.8804 1.5752 24.7857 1.44661C24.6823 1.30625 24.626 1.13495 24.626 0.962891H26.626C26.626 0.379549 26.2391 0.0317993 25.945 -0.115252C25.6793 -0.248133 25.4059 -0.276367 25.2158 -0.276367V1.72363ZM24.626 0.962891V11.832H26.626V0.962891H24.626ZM25.626 12.832H36.4951V10.832H25.626V12.832ZM37.4951 11.832V3.15039H35.4951V11.832H37.4951ZM37.4951 3.15039C37.4951 2.40899 37.3874 1.69583 36.9452 1.11403C36.5048 0.534533 35.8643 0.261286 35.247 0.0742264L34.667 1.98827C35.1777 2.14301 35.3062 2.26283 35.3529 2.3242C35.3978 2.38328 35.4951 2.55878 35.4951 3.15039H37.4951ZM35.957 1.03125V0.723633H33.957V1.03125H35.957ZM34.957 1.72363H40.4258V-0.276367H34.957V1.72363ZM40.4258 1.72363C40.4234 1.72363 40.4119 1.72359 40.3908 1.71961C40.372 1.71606 40.3241 1.7054 40.2606 1.6736C40.1977 1.64216 40.0904 1.5752 39.9956 1.44661C39.8922 1.30625 39.8359 1.13495 39.8359 0.962891H41.8359C41.8359 0.379549 41.4491 0.0317993 41.155 -0.115252C40.8892 -0.248133 40.6158 -0.276367 40.4258 -0.276367V1.72363ZM39.8359 0.962891V23.5898H41.8359V0.962891H39.8359ZM39.8359 23.5898C39.8359 24.0962 39.7137 24.5207 39.4263 24.8965L41.0151 26.1114C41.6164 25.325 41.8359 24.4507 41.8359 23.5898H39.8359ZM40.2207 24.5039H36.4951V26.5039H40.2207V24.5039ZM37.4951 25.5039V13.7461H35.4951V25.5039H37.4951ZM36.4951 12.7461H25.626V14.7461H36.4951V12.7461ZM24.626 13.7461V23.5898H26.626V13.7461H24.626ZM24.626 23.5898C24.626 24.0962 24.5037 24.5207 24.2164 24.8965L25.8051 26.1114C26.4064 25.325 26.626 24.4507 26.626 23.5898H24.626ZM25.0107 24.5039H21.2852V26.5039H25.0107V24.5039ZM22.2852 25.5039V3.15039H20.2852V25.5039H22.2852ZM65.6162 25.5039V26.5039H66.3209L66.558 25.8402L65.6162 25.5039ZM61.5146 25.5039L60.5568 25.7913L60.7706 26.5039H61.5146V25.5039ZM60.7969 23.1113L61.7548 22.824L61.7511 22.8123L60.7969 23.1113ZM59.1904 17.9844L60.1447 17.6854L59.925 16.9844H59.1904V17.9844ZM50.4062 17.9844V16.9844H49.6719L49.4521 17.6851L50.4062 17.9844ZM48.0479 25.5039V26.5039H48.7822L49.002 25.8032L48.0479 25.5039ZM44.9033 25.5039L43.9561 25.1834L43.5092 26.5039H44.9033V25.5039ZM52.5254 2.97949L53.4726 3.30003L53.4759 3.29036L53.479 3.28062L52.5254 2.97949ZM51.7393 1.03125H50.7393V1.6869L51.3405 1.94832L51.7393 1.03125ZM51.7393 0.723633V-0.276367H50.7393V0.723633H51.7393ZM57.3105 0.723633L58.2524 0.387646L58.0155 -0.276367H57.3105V0.723633ZM65.6504 24.1025L66.5991 23.7863L66.5958 23.7764L66.5923 23.7666L65.6504 24.1025ZM50.9873 16.0703L50.0338 15.7688L49.6223 17.0703H50.9873V16.0703ZM58.5752 16.0703V17.0703H59.9402L59.5287 15.7688L58.5752 16.0703ZM54.7812 4.07324L55.7347 3.77172L54.7812 0.756727L53.8278 3.77172L54.7812 4.07324ZM65.6162 24.5039H61.5146V26.5039H65.6162V24.5039ZM62.4725 25.2166L61.7547 22.824L59.8391 23.3987L60.5568 25.7913L62.4725 25.2166ZM61.7511 22.8123L60.1447 17.6854L58.2362 18.2834L59.8426 23.4103L61.7511 22.8123ZM59.1904 16.9844H50.4062V18.9844H59.1904V16.9844ZM49.4521 17.6851L47.0937 25.2046L49.002 25.8032L51.3604 18.2836L49.4521 17.6851ZM48.0479 24.5039H44.9033V26.5039H48.0479V24.5039ZM45.8506 25.8244L53.4726 3.30003L51.5782 2.65895L43.9561 25.1834L45.8506 25.8244ZM53.479 3.28062C53.7036 2.56939 53.8103 1.83029 53.4644 1.17798C53.1317 0.550611 52.5066 0.274448 52.138 0.11418L51.3405 1.94832C51.5268 2.0293 51.6274 2.0821 51.6882 2.1235C51.7386 2.15788 51.7195 2.15657 51.6975 2.11499C51.6742 2.07116 51.6893 2.06176 51.6867 2.1432C51.6837 2.23566 51.6589 2.40249 51.5718 2.67836L53.479 3.28062ZM52.7393 1.03125V0.723633H50.7393V1.03125H52.7393ZM51.7393 1.72363H57.3105V-0.276367H51.7393V1.72363ZM56.3687 1.05962L64.7085 24.4385L66.5923 23.7666L58.2524 0.387646L56.3687 1.05962ZM64.7017 24.4188C64.7903 24.6845 64.7835 24.8623 64.6745 25.1676L66.558 25.8402C66.7907 25.1885 66.8523 24.546 66.5991 23.7863L64.7017 24.4188ZM50.9873 17.0703H58.5752V15.0703H50.9873V17.0703ZM59.5287 15.7688L55.7347 3.77172L53.8278 4.37476L57.6217 16.3718L59.5287 15.7688ZM53.8278 3.77172L50.0338 15.7688L51.9408 16.3718L55.7347 4.37476L53.8278 3.77172ZM68.6924 1.03125H67.6924V1.76644L68.3941 1.98573L68.6924 1.03125ZM68.6924 0.723633V-0.276367H67.6924V0.723633H68.6924ZM74.5371 23.5898H73.5371V24.5898H74.5371V23.5898ZM86.876 21.8125V20.8125H86.3578L86.059 21.2358L86.876 21.8125ZM87.3545 21.8125H88.3545V20.8125H87.3545V21.8125ZM70.1963 25.5039H69.1963V26.5039H70.1963V25.5039ZM71.1963 3.15039C71.1963 2.40821 71.0882 1.69993 70.6558 1.12083C70.2231 0.541302 69.5942 0.265368 68.9907 0.0767708L68.3941 1.98573C68.8843 2.13893 69.0074 2.25606 69.0532 2.31741C69.0993 2.37917 69.1963 2.55956 69.1963 3.15039H71.1963ZM69.6924 1.03125V0.723633H67.6924V1.03125H69.6924ZM68.6924 1.72363H74.1611V-0.276367H68.6924V1.72363ZM74.1611 1.72363C74.1374 1.72363 74.058 1.7226 73.9453 1.66296C73.8826 1.62975 73.7804 1.56218 73.6906 1.43734C73.5929 1.30151 73.5371 1.13441 73.5371 0.962891H75.5371C75.5371 0.38876 75.1614 0.0437603 74.8811 -0.104612C74.6232 -0.241156 74.3558 -0.276367 74.1611 -0.276367V1.72363ZM73.5371 0.962891V23.5898H75.5371V0.962891H73.5371ZM74.5371 24.5898H82.0566V22.5898H74.5371V24.5898ZM82.0566 24.5898C83.5638 24.5898 84.7115 24.4329 85.6233 24.064C86.5748 23.6789 87.1958 23.0934 87.6929 22.3892L86.059 21.2358C85.7358 21.6937 85.3998 21.9969 84.8731 22.21C84.3066 22.4392 83.4548 22.5898 82.0566 22.5898V24.5898ZM86.876 22.8125H87.3545V20.8125H86.876V22.8125ZM86.3545 21.8125V25.0938H88.3545V21.8125H86.3545ZM86.3545 25.0938C86.3545 25.14 86.3393 24.859 86.6035 24.6365C86.7148 24.5428 86.8168 24.5131 86.8499 24.5052C86.8798 24.4981 86.874 24.5039 86.8076 24.5039V26.5039C87.0728 26.5039 87.5238 26.4762 87.8918 26.1663C88.3185 25.807 88.3545 25.3209 88.3545 25.0938H86.3545ZM86.8076 24.5039H70.1963V26.5039H86.8076V24.5039ZM71.1963 25.5039V3.15039H69.1963V25.5039H71.1963ZM89.6787 1.03125H88.6787V1.76644L89.3804 1.98573L89.6787 1.03125ZM89.6787 0.723633V-0.276367H88.6787V0.723633H89.6787ZM95.5234 23.5898H94.5234V24.5898H95.5234V23.5898ZM107.862 21.8125V20.8125H107.344L107.045 21.2358L107.862 21.8125ZM108.341 21.8125H109.341V20.8125H108.341V21.8125ZM91.1826 25.5039H90.1826V26.5039H91.1826V25.5039ZM92.1826 3.15039C92.1826 2.40821 92.0745 1.69993 91.6421 1.12083C91.2094 0.541302 90.5805 0.265368 89.977 0.0767708L89.3804 1.98573C89.8707 2.13893 89.9937 2.25606 90.0395 2.31741C90.0857 2.37917 90.1826 2.55956 90.1826 3.15039H92.1826ZM90.6787 1.03125V0.723633H88.6787V1.03125H90.6787ZM89.6787 1.72363H95.1475V-0.276367H89.6787V1.72363ZM95.1475 1.72363C95.1237 1.72363 95.0443 1.7226 94.9316 1.66296C94.8689 1.62975 94.7667 1.56218 94.6769 1.43734C94.5792 1.30151 94.5234 1.13441 94.5234 0.962891H96.5234C96.5234 0.38876 96.1477 0.0437603 95.8674 -0.104612C95.6095 -0.241156 95.3421 -0.276367 95.1475 -0.276367V1.72363ZM94.5234 0.962891V23.5898H96.5234V0.962891H94.5234ZM95.5234 24.5898H103.043V22.5898H95.5234V24.5898ZM103.043 24.5898C104.55 24.5898 105.698 24.4329 106.61 24.064C107.561 23.6789 108.182 23.0934 108.679 22.3892L107.045 21.2358C106.722 21.6937 106.386 21.9969 105.859 22.21C105.293 22.4392 104.441 22.5898 103.043 22.5898V24.5898ZM107.862 22.8125H108.341V20.8125H107.862V22.8125ZM107.341 21.8125V25.0938H109.341V21.8125H107.341ZM107.341 25.0938C107.341 25.14 107.326 24.859 107.59 24.6365C107.701 24.5428 107.803 24.5131 107.836 24.5052C107.866 24.4981 107.86 24.5039 107.794 24.5039V26.5039C108.059 26.5039 108.51 26.4762 108.878 26.1663C109.305 25.807 109.341 25.3209 109.341 25.0938H107.341ZM107.794 24.5039H91.1826V26.5039H107.794V24.5039ZM92.1826 25.5039V3.15039H90.1826V25.5039H92.1826ZM131.583 3.18457L130.604 3.39058L130.607 3.40465L130.611 3.41862L131.583 3.18457ZM129.703 1.03125H128.703V1.75201L129.387 1.97993L129.703 1.03125ZM129.703 0.723633V-0.276367H128.703V0.723633H129.703ZM134.864 0.962891L135.841 0.74803L135.838 0.734146L135.834 0.720354L134.864 0.962891ZM139.376 21.4707L138.399 21.6856L140.356 21.6693L139.376 21.4707ZM143.102 3.08203L144.082 3.2806L144.083 3.27191L144.085 3.2632L143.102 3.08203ZM142.247 1.03125H141.247V1.81203L142.005 2.00139L142.247 1.03125ZM142.247 0.723633V-0.276367H141.247V0.723633H142.247ZM146.417 1.20215L147.391 1.42691L147.393 1.41908L146.417 1.20215ZM140.812 25.5039V26.5039H141.607L141.786 25.7287L140.812 25.5039ZM136.812 25.5039L135.839 25.7327L136.02 26.5039H136.812V25.5039ZM133.189 10.0889L134.163 9.86007L132.217 9.85598L133.189 10.0889ZM129.498 25.5039V26.5039H130.287L130.471 25.7368L129.498 25.5039ZM125.465 25.5039L124.49 25.7264L124.667 26.5039H125.465V25.5039ZM120.372 3.18457L119.394 3.39058L119.395 3.39882L119.397 3.40703L120.372 3.18457ZM118.492 1.03125H117.492V1.75201L118.176 1.97993L118.492 1.03125ZM118.492 0.723633V-0.276367H117.492V0.723633H118.492ZM123.688 0.99707L124.666 0.790321L124.662 0.772352L124.658 0.754534L123.688 0.99707ZM128.028 21.5391L127.05 21.7458L129 21.7745L128.028 21.5391ZM132.027 5.03027L132.999 5.2657L133.056 5.031L133 4.79622L132.027 5.03027ZM132.562 2.97856C132.395 2.18766 132.085 1.54616 131.612 1.0477C131.143 0.553436 130.578 0.268799 130.019 0.0825672L129.387 1.97993C129.751 2.10132 129.99 2.24393 130.161 2.42472C130.329 2.6013 130.498 2.88265 130.604 3.39058L132.562 2.97856ZM130.703 1.03125V0.723633H128.703V1.03125H130.703ZM129.703 1.72363H134.488V-0.276367H129.703V1.72363ZM134.488 1.72363C134.404 1.72363 134.344 1.70919 134.311 1.69925C134.275 1.68841 134.241 1.67374 134.208 1.65393C134.176 1.63503 134.124 1.60014 134.07 1.53982C134.016 1.48054 133.935 1.37035 133.894 1.20543L135.834 0.720354C135.723 0.273951 135.394 0.0314827 135.222 -0.0699425C135.029 -0.183327 134.77 -0.276367 134.488 -0.276367V1.72363ZM133.888 1.17775L138.399 21.6856L140.353 21.2558L135.841 0.74803L133.888 1.17775ZM140.356 21.6693L144.082 3.2806L142.121 2.88346L138.396 21.2721L140.356 21.6693ZM144.085 3.2632C144.202 2.62675 144.293 1.91222 144.056 1.29866C143.763 0.541895 143.114 0.217131 142.49 0.0611076L142.005 2.00139C142.177 2.0444 142.234 2.08167 142.239 2.08534C142.239 2.0855 142.236 2.08338 142.231 2.07863C142.226 2.0738 142.22 2.0673 142.214 2.05923C142.2 2.04169 142.193 2.02636 142.19 2.01995C142.188 2.01357 142.208 2.0628 142.204 2.22225C142.2 2.38065 142.174 2.5975 142.118 2.90087L144.085 3.2632ZM143.247 1.03125V0.723633H141.247V1.03125H143.247ZM142.247 1.72363H146.007V-0.276367H142.247V1.72363ZM146.007 1.72363C145.952 1.72363 145.776 1.70643 145.614 1.53528C145.423 1.33326 145.416 1.09502 145.441 0.985218L147.393 1.41908C147.486 1.00166 147.411 0.524164 147.066 0.15979C146.75 -0.173712 146.335 -0.276367 146.007 -0.276367V1.72363ZM145.443 0.977388L139.837 25.2791L141.786 25.7287L147.391 1.42691L145.443 0.977388ZM140.812 24.5039H136.812V26.5039H140.812V24.5039ZM137.786 25.2751L134.163 9.86007L132.216 10.3177L135.839 25.7327L137.786 25.2751ZM132.217 9.85598L128.526 25.271L130.471 25.7368L134.162 10.3218L132.217 9.85598ZM129.498 24.5039H125.465V26.5039H129.498V24.5039ZM126.44 25.2814L121.347 2.96211L119.397 3.40703L124.49 25.7264L126.44 25.2814ZM121.351 2.97856C121.184 2.18766 120.874 1.54616 120.401 1.0477C119.932 0.553436 119.367 0.268799 118.808 0.0825672L118.176 1.97993C118.54 2.10132 118.779 2.24393 118.95 2.42472C119.118 2.6013 119.287 2.88265 119.394 3.39058L121.351 2.97856ZM119.492 1.03125V0.723633H117.492V1.03125H119.492ZM118.492 1.72363H123.346V-0.276367H118.492V1.72363ZM123.346 1.72363C123.218 1.72363 123.122 1.69307 123.066 1.6698C123.008 1.64539 122.964 1.6166 122.93 1.58995C122.884 1.55295 122.77 1.44836 122.717 1.23961L124.658 0.754534C124.571 0.409058 124.354 0.167757 124.18 0.0282135C124.008 -0.109015 123.717 -0.276367 123.346 -0.276367V1.72363ZM122.709 1.20382L127.05 21.7458L129.007 21.3323L124.666 0.790321L122.709 1.20382ZM129 21.7745L132.999 5.2657L131.055 4.79485L127.056 21.3036L129 21.7745ZM133 4.79622L132.555 2.95052L130.611 3.41862L131.055 5.26433L133 4.79622ZM162.857 14.1904L162.745 15.1841L163.857 15.3094V14.1904H162.857ZM153.902 13.7461L153.911 12.7461L152.902 12.737V13.7461H153.902ZM153.902 23.5898H152.902V24.5898H153.902V23.5898ZM164.806 21.8125V20.8125H164.288L163.989 21.2358L164.806 21.8125ZM165.284 21.8125H166.284V20.8125H165.284V21.8125ZM149.562 25.5039H148.562V26.5039H149.562V25.5039ZM148.023 1.03125H147.023V1.77312L147.733 1.98827L148.023 1.03125ZM148.023 0.723633V-0.276367H147.023V0.723633H148.023ZM164.225 4.41504V5.41504H165.225V4.41504H164.225ZM163.746 4.41504L162.929 4.99172L163.228 5.41504H163.746V4.41504ZM153.902 2.6377V1.6377H152.902V2.6377H153.902ZM153.902 11.8662H152.902V12.8753L153.911 12.8662L153.902 11.8662ZM162.857 11.3877H163.857V10.2687L162.745 10.394L162.857 11.3877ZM162.969 13.1967C160.495 12.918 157.724 12.7805 153.911 12.7461L153.893 14.7461C157.669 14.7801 160.366 14.916 162.745 15.1841L162.969 13.1967ZM152.902 13.7461V23.5898H154.902V13.7461H152.902ZM153.902 24.5898H159.986V22.5898H153.902V24.5898ZM159.986 24.5898C161.493 24.5898 162.641 24.4329 163.553 24.064C164.505 23.6789 165.126 23.0934 165.623 22.3892L163.989 21.2358C163.665 21.6937 163.329 21.9969 162.803 22.21C162.236 22.4392 161.384 22.5898 159.986 22.5898V24.5898ZM164.806 22.8125H165.284V20.8125H164.806V22.8125ZM164.284 21.8125V25.0938H166.284V21.8125H164.284ZM164.284 25.0938C164.284 25.1335 164.28 25.0887 164.301 25.0118C164.327 24.9143 164.391 24.7736 164.526 24.654C164.65 24.544 164.766 24.5116 164.799 24.5041C164.828 24.4974 164.817 24.5039 164.737 24.5039V26.5039C164.994 26.5039 165.476 26.485 165.855 26.1488C166.286 25.7651 166.284 25.2464 166.284 25.0938H164.284ZM164.737 24.5039H149.562V26.5039H164.737V24.5039ZM150.562 25.5039V3.15039H148.562V25.5039H150.562ZM150.562 3.15039C150.562 2.40899 150.454 1.69583 150.012 1.11403C149.571 0.534533 148.931 0.261286 148.313 0.0742264L147.733 1.98827C148.244 2.14301 148.373 2.26283 148.419 2.3242C148.464 2.38328 148.562 2.55878 148.562 3.15039H150.562ZM149.023 1.03125V0.723633H147.023V1.03125H149.023ZM148.023 1.72363H163.678V-0.276367H148.023V1.72363ZM163.678 1.72363C163.743 1.72363 163.752 1.72923 163.727 1.72337C163.7 1.71714 163.605 1.69147 163.498 1.60678C163.38 1.51346 163.301 1.39215 163.26 1.27558C163.224 1.17506 163.225 1.10338 163.225 1.09961H165.225C165.225 0.853182 165.171 0.379345 164.737 0.0370159C164.379 -0.24625 163.948 -0.276367 163.678 -0.276367V1.72363ZM163.225 1.09961V4.41504H165.225V1.09961H163.225ZM164.225 3.41504H163.746V5.41504H164.225V3.41504ZM164.563 3.83836C164.066 3.13412 163.445 2.54861 162.493 2.16359C161.582 1.79467 160.434 1.6377 158.927 1.6377V3.6377C160.325 3.6377 161.177 3.78833 161.743 4.01757C162.27 4.23068 162.606 4.53385 162.929 4.99172L164.563 3.83836ZM158.927 1.6377H153.902V3.6377H158.927V1.6377ZM152.902 2.6377V11.8662H154.902V2.6377H152.902ZM153.911 12.8662C157.733 12.8317 160.502 12.6594 162.969 12.3814L162.745 10.394C160.359 10.6628 157.66 10.8323 153.893 10.8663L153.911 12.8662ZM161.857 11.3877V14.1904H163.857V11.3877H161.857ZM190.372 1.03125L190.701 0.0867538L190.679 0.0793228L190.658 0.0728645L190.372 1.03125ZM191.261 6.1582V7.1582H192.261V6.1582H191.261ZM190.816 6.1582L189.871 6.48472L190.104 7.1582H190.816V6.1582ZM185.313 10.6357L185.767 9.74461L185.764 9.74296L185.313 10.6357ZM176.939 24.4443L176.449 25.3159L176.476 25.3309L176.504 25.3443L176.939 24.4443ZM176.324 19.0098V18.0098H175.324V19.0098H176.324ZM176.769 19.0098L177.721 18.705L177.499 18.0098H176.769V19.0098ZM183.194 13.9512L183.605 13.0394L183.602 13.0381L183.194 13.9512ZM184.767 1.24512C187.121 1.24512 188.563 1.53589 190.087 1.98964L190.658 0.0728645C188.968 -0.43042 187.334 -0.754883 184.767 -0.754883V1.24512ZM190.044 1.97575C190.226 2.03905 190.346 2.08714 190.426 2.12369C190.51 2.16221 190.516 2.17343 190.49 2.15227C190.452 2.12264 190.372 2.04552 190.314 1.91296C190.26 1.78812 190.261 1.68864 190.261 1.68066H192.261C192.261 1.55306 192.248 1.34676 192.151 1.12046C192.05 0.886421 191.894 0.713173 191.733 0.585278C191.46 0.369055 191.086 0.220737 190.701 0.0867538L190.044 1.97575ZM190.261 1.68066V6.1582H192.261V1.68066H190.261ZM191.261 5.1582H190.816V7.1582H191.261V5.1582ZM191.762 5.83168C191.006 3.64458 188.67 1.15918 185.245 1.15918V3.15918C187.631 3.15918 189.328 4.91206 189.871 6.48472L191.762 5.83168ZM185.245 1.15918C181.879 1.15918 179.973 3.46406 179.973 5.85059H181.973C181.973 4.61406 182.938 3.15918 185.245 3.15918V1.15918ZM179.973 5.85059C179.973 6.88792 180.162 7.87132 180.98 8.84707C181.737 9.75101 182.979 10.5778 184.863 11.5285L185.764 9.74296C183.922 8.81376 182.994 8.13668 182.512 7.56235C182.091 7.05983 181.973 6.59059 181.973 5.85059H179.973ZM184.86 11.5269C187.671 12.9586 189.448 13.97 190.545 15.055C191.557 16.0564 192.004 17.1383 192.004 18.873H194.004C194.004 16.6771 193.392 15.0588 191.951 13.6334C190.595 12.2917 188.527 11.1498 185.767 9.74462L184.86 11.5269ZM192.004 18.873C192.004 20.6916 191.345 22.1345 190.094 23.1452C188.816 24.1776 186.811 24.8457 183.98 24.8457V26.8457C187.097 26.8457 189.604 26.1125 191.351 24.701C193.125 23.2678 194.004 21.2244 194.004 18.873H192.004ZM183.98 24.8457C181.938 24.8457 179.373 24.512 177.375 23.5444L176.504 25.3443C178.881 26.4958 181.785 26.8457 183.98 26.8457V24.8457ZM177.43 23.5728C177.331 23.517 177.283 23.4807 177.264 23.4647C177.249 23.4513 177.266 23.463 177.289 23.5015C177.3 23.52 177.309 23.5395 177.315 23.5585C177.322 23.5772 177.325 23.5911 177.326 23.5975C177.328 23.6034 177.327 23.6015 177.326 23.5885C177.325 23.5751 177.324 23.5542 177.324 23.5215H175.324C175.324 23.7587 175.341 24.1343 175.565 24.5156C175.78 24.882 176.111 25.1257 176.449 25.3159L177.43 23.5728ZM177.324 23.5215V19.0098H175.324V23.5215H177.324ZM176.324 20.0098H176.769V18.0098H176.324V20.0098ZM175.816 19.3145C176.762 22.2716 179.867 24.9316 183.741 24.9316V22.9316C180.779 22.9316 178.415 20.8748 177.721 18.705L175.816 19.3145ZM183.741 24.9316C185.562 24.9316 187.051 24.4267 188.093 23.4666C189.142 22.5005 189.629 21.1744 189.629 19.7617H187.629C187.629 20.7074 187.313 21.4663 186.738 21.9955C186.157 22.5308 185.201 22.9316 183.741 22.9316V24.9316ZM189.629 19.7617C189.629 18.1799 189.125 16.9001 188.05 15.7989C187.027 14.7512 185.521 13.9025 183.605 13.0394L182.784 14.8629C184.661 15.7088 185.873 16.4324 186.619 17.1962C187.312 17.9065 187.629 18.6775 187.629 19.7617H189.629ZM183.602 13.0381C180.069 11.4604 177.7 9.71321 177.7 6.6709H175.7C175.7 11.0798 179.278 13.2974 182.787 14.8643L183.602 13.0381ZM177.7 6.6709C177.7 4.89682 178.418 3.5873 179.605 2.69286C180.823 1.77447 182.608 1.24512 184.767 1.24512V-0.754883C182.311 -0.754883 180.062 -0.156305 178.401 1.09571C176.708 2.37169 175.7 4.27505 175.7 6.6709H177.7ZM214.059 1.03125L214.387 0.0867538L214.363 0.0783844L214.339 0.0712509L214.059 1.03125ZM214.947 5.44043V6.44043H215.947V5.44043H214.947ZM214.503 5.44043L213.599 5.86781L213.87 6.44043H214.503V5.44043ZM215.152 20.0693V19.0693H214.42L214.199 19.7674L215.152 20.0693ZM215.631 20.0693H216.631V19.0693H215.631V20.0693ZM214.981 24.4443L215.416 25.3449L215.433 25.3368L215.449 25.3281L214.981 24.4443ZM208.692 24.8457C205.687 24.8457 202.789 24.0045 200.658 22.1552C198.551 20.3275 197.08 17.417 197.08 13.0283H195.08C195.08 17.9023 196.736 21.4005 199.347 23.6658C201.933 25.9096 205.341 26.8457 208.692 26.8457V24.8457ZM197.08 13.0283C197.08 8.66621 198.588 5.75695 200.667 3.92663C202.77 2.07514 205.553 1.24512 208.214 1.24512V-0.754883C205.166 -0.754883 201.882 0.192438 199.346 2.42542C196.785 4.67957 195.08 8.16192 195.08 13.0283H197.08ZM208.214 1.24512C210.812 1.24512 212.221 1.53701 213.779 1.99125L214.339 0.0712509C212.615 -0.431543 211.017 -0.754883 208.214 -0.754883V1.24512ZM213.73 1.97575C213.912 2.03905 214.033 2.08714 214.113 2.12369C214.197 2.16221 214.203 2.17343 214.176 2.15227C214.139 2.12264 214.058 2.04552 214.001 1.91296C213.947 1.78812 213.947 1.68864 213.947 1.68066H215.947C215.947 1.55306 215.935 1.34676 215.837 1.12046C215.736 0.886421 215.58 0.713173 215.419 0.585278C215.146 0.369055 214.772 0.220737 214.387 0.0867538L213.73 1.97575ZM213.947 1.68066V5.44043H215.947V1.68066H213.947ZM214.947 4.44043H214.503V6.44043H214.947V4.44043ZM215.407 5.01305C214.889 3.91816 214.095 2.93169 212.886 2.23001C211.687 1.53402 210.152 1.15918 208.214 1.15918V3.15918C209.899 3.15918 211.064 3.48502 211.882 3.95969C212.69 4.42867 213.228 5.08281 213.599 5.86781L215.407 5.01305ZM208.214 1.15918C206.054 1.15918 203.817 1.99189 202.135 3.95697C200.461 5.91186 199.421 8.8865 199.421 13.0283H201.421C201.421 9.20627 202.38 6.74634 203.654 5.25763C204.92 3.7791 206.58 3.15918 208.214 3.15918V1.15918ZM199.421 13.0283C199.421 17.1738 200.412 20.1687 202.138 22.1383C203.879 24.1249 206.247 24.9316 208.692 24.9316V22.9316C206.695 22.9316 204.927 22.2857 203.643 20.8202C202.343 19.3377 201.421 16.8809 201.421 13.0283H199.421ZM208.692 24.9316C212.439 24.9316 215.295 22.9313 216.106 20.3712L214.199 19.7674C213.711 21.309 211.781 22.9316 208.692 22.9316V24.9316ZM215.152 21.0693H215.631V19.0693H215.152V21.0693ZM214.631 20.0693V23.5215H216.631V20.0693H214.631ZM214.631 23.5215C214.631 23.5543 214.63 23.5745 214.629 23.587C214.628 23.599 214.628 23.5991 214.629 23.5912C214.631 23.5826 214.635 23.5664 214.643 23.5454C214.651 23.524 214.661 23.5027 214.673 23.4831C214.698 23.4424 214.717 23.4315 214.698 23.447C214.675 23.4651 214.622 23.5032 214.514 23.5605L215.449 25.3281C215.801 25.1422 216.147 24.9024 216.375 24.534C216.615 24.1452 216.631 23.7586 216.631 23.5215H214.631ZM214.547 23.5438C212.706 24.4322 210.873 24.8457 208.692 24.8457V26.8457C211.16 26.8457 213.292 26.3705 215.416 25.3449L214.547 23.5438ZM238.839 25.5039V26.5039H239.544L239.781 25.8402L238.839 25.5039ZM234.737 25.5039L233.779 25.7913L233.993 26.5039H234.737V25.5039ZM234.02 23.1113L234.977 22.824L234.974 22.8123L234.02 23.1113ZM232.413 17.9844L233.367 17.6854L233.148 16.9844H232.413V17.9844ZM223.629 17.9844V16.9844H222.895L222.675 17.6851L223.629 17.9844ZM221.271 25.5039V26.5039H222.005L222.225 25.8032L221.271 25.5039ZM218.126 25.5039L217.179 25.1834L216.732 26.5039H218.126V25.5039ZM225.748 2.97949L226.695 3.30003L226.699 3.29036L226.702 3.28062L225.748 2.97949ZM224.962 1.03125H223.962V1.6869L224.563 1.94832L224.962 1.03125ZM224.962 0.723633V-0.276367H223.962V0.723633H224.962ZM230.533 0.723633L231.475 0.387646L231.238 -0.276367H230.533V0.723633ZM238.873 24.1025L239.822 23.7863L239.818 23.7764L239.815 23.7666L238.873 24.1025ZM224.21 16.0703L223.257 15.7688L222.845 17.0703H224.21V16.0703ZM231.798 16.0703V17.0703H233.163L232.751 15.7688L231.798 16.0703ZM228.004 4.07324L228.957 3.77172L228.004 0.756727L227.05 3.77172L228.004 4.07324ZM238.839 24.5039H234.737V26.5039H238.839V24.5039ZM235.695 25.2166L234.977 22.824L233.062 23.3987L233.779 25.7913L235.695 25.2166ZM234.974 22.8123L233.367 17.6854L231.459 18.2834L233.065 23.4103L234.974 22.8123ZM232.413 16.9844H223.629V18.9844H232.413V16.9844ZM222.675 17.6851L220.316 25.2046L222.225 25.8032L224.583 18.2836L222.675 17.6851ZM221.271 24.5039H218.126V26.5039H221.271V24.5039ZM219.073 25.8244L226.695 3.30003L224.801 2.65895L217.179 25.1834L219.073 25.8244ZM226.702 3.28062C226.926 2.56939 227.033 1.83029 226.687 1.17798C226.354 0.550611 225.729 0.274448 225.361 0.11418L224.563 1.94832C224.749 2.0293 224.85 2.0821 224.911 2.1235C224.961 2.15788 224.942 2.15657 224.92 2.11499C224.897 2.07116 224.912 2.06176 224.909 2.1432C224.906 2.23566 224.882 2.40249 224.794 2.67836L226.702 3.28062ZM225.962 1.03125V0.723633H223.962V1.03125H225.962ZM224.962 1.72363H230.533V-0.276367H224.962V1.72363ZM229.591 1.05962L237.931 24.4385L239.815 23.7666L231.475 0.387646L229.591 1.05962ZM237.924 24.4188C238.013 24.6845 238.006 24.8623 237.897 25.1676L239.781 25.8402C240.013 25.1885 240.075 24.546 239.822 23.7863L237.924 24.4188ZM224.21 17.0703H231.798V15.0703H224.21V17.0703ZM232.751 15.7688L228.957 3.77172L227.05 4.37476L230.844 16.3718L232.751 15.7688ZM227.05 3.77172L223.257 15.7688L225.163 16.3718L228.957 4.37476L227.05 3.77172ZM258.355 25.5039L257.495 26.0142L257.786 26.5039H258.355V25.5039ZM246.734 5.91895L247.594 5.40865L245.734 2.274V5.91895H246.734ZM246.119 25.5039V26.5039H246.613L246.913 26.1114L246.119 25.5039ZM243.453 25.5039H242.453V26.5039H243.453V25.5039ZM241.915 1.03125H240.915V1.77312L241.625 1.98827L241.915 1.03125ZM241.915 0.723633V-0.276367H240.915V0.723633H241.915ZM247.862 0.928711L246.968 1.37593L246.987 1.41444L247.01 1.45116L247.862 0.928711ZM259.381 19.7275L258.528 20.25L260.381 23.2736V19.7275H259.381ZM257.843 1.03125H256.843V1.77312L257.553 1.98827L257.843 1.03125ZM257.843 0.723633V-0.276367H256.843V0.723633H257.843ZM262.047 25.5039V26.5039H262.565L262.864 26.0806L262.047 25.5039ZM259.215 24.9936L247.594 5.40865L245.874 6.42924L257.495 26.0142L259.215 24.9936ZM245.734 5.91895V23.5898H247.734V5.91895H245.734ZM245.734 23.5898C245.734 24.0962 245.612 24.5207 245.325 24.8965L246.913 26.1114C247.515 25.325 247.734 24.4507 247.734 23.5898H245.734ZM246.119 24.5039H243.453V26.5039H246.119V24.5039ZM244.453 25.5039V3.15039H242.453V25.5039H244.453ZM244.453 3.15039C244.453 2.40899 244.345 1.69583 243.903 1.11403C243.463 0.534533 242.822 0.261286 242.205 0.0742264L241.625 1.98827C242.136 2.14301 242.264 2.26283 242.311 2.3242C242.356 2.38328 242.453 2.55878 242.453 3.15039H244.453ZM242.915 1.03125V0.723633H240.915V1.03125H242.915ZM241.915 1.72363H247.418V-0.276367H241.915V1.72363ZM247.418 1.72363C247.417 1.72363 247.366 1.72447 247.285 1.68871C247.199 1.65047 247.059 1.55838 246.968 1.37593L248.757 0.481497C248.435 -0.162434 247.767 -0.276367 247.418 -0.276367V1.72363ZM247.01 1.45116L258.528 20.25L260.234 19.2051L248.715 0.406258L247.01 1.45116ZM260.381 19.7275V3.15039H258.381V19.7275H260.381ZM260.381 3.15039C260.381 2.40899 260.273 1.69583 259.831 1.11403C259.391 0.534533 258.75 0.261286 258.133 0.0742264L257.553 1.98827C258.063 2.14301 258.192 2.26283 258.239 2.3242C258.284 2.38328 258.381 2.55878 258.381 3.15039H260.381ZM258.843 1.03125V0.723633H256.843V1.03125H258.843ZM257.843 1.72363H262.252V-0.276367H257.843V1.72363ZM262.252 1.72363C262.23 1.72363 262.178 1.72331 262.093 1.68291C262.046 1.66078 261.946 1.60574 261.851 1.48959C261.743 1.3588 261.662 1.17449 261.662 0.962891H263.662C263.662 0.313314 263.184 -0.013485 262.949 -0.124563C262.702 -0.241869 262.444 -0.276367 262.252 -0.276367V1.72363ZM261.662 0.962891V23.5898H263.662V0.962891H261.662ZM261.662 23.5898C261.662 24.0636 261.523 24.5122 261.23 24.9272L262.864 26.0806C263.391 25.3335 263.662 24.4833 263.662 23.5898H261.662ZM262.047 24.5039H258.355V26.5039H262.047V24.5039Z" fill="#3E8D60" mask="url(#path-1-outside-1_353_1631)"/>
</svg>
