<svg width="105" height="105" viewBox="0 0 105 105" fill="none" xmlns="http://www.w3.org/2000/svg">
<path fill-rule="evenodd" clip-rule="evenodd" d="M62.9339 67.5763C57.0371 72.2878 49.56 74.5625 42.0384 73.9334C34.5168 73.3042 27.5215 69.8189 22.4894 64.1932C17.4573 58.5675 14.7702 51.2285 14.9802 43.6835C15.1901 36.1385 18.2811 28.9603 23.6183 23.6231C28.9554 18.286 36.1336 15.195 43.6786 14.9851C51.2236 14.7751 58.5626 17.4622 64.1883 22.4943C69.814 27.5264 73.2993 34.5216 73.9285 42.0433C74.5576 49.5649 72.2829 57.0419 67.5714 62.9388L90.1289 85.4919C90.4513 85.7923 90.7098 86.1545 90.8892 86.557C91.0685 86.9595 91.1649 87.394 91.1727 87.8346C91.1805 88.2752 91.0994 88.7128 90.9344 89.1214C90.7694 89.5299 90.5238 89.9011 90.2122 90.2127C89.9006 90.5243 89.5294 90.7699 89.1209 90.9349C88.7123 91.0999 88.2747 91.181 87.8341 91.1732C87.3935 91.1654 86.959 91.069 86.5565 90.8897C86.154 90.7103 85.7918 90.4518 85.4914 90.1294L62.9339 67.5763ZM28.2576 60.7425C25.0466 57.5311 22.8595 53.4399 21.973 48.9859C21.0864 44.5319 21.5401 39.915 23.2767 35.7188C25.0133 31.5226 27.9549 27.9354 31.7297 25.4104C35.5045 22.8855 39.943 21.5363 44.4844 21.5332C49.0257 21.5302 53.4661 22.8735 57.2443 25.3933C61.0224 27.9131 63.9688 31.4964 65.7111 35.6903C67.4533 39.8841 67.9132 44.5004 67.0327 48.9556C66.1521 53.4107 63.9706 57.5049 60.7639 60.7206L60.742 60.7425L60.7201 60.76C56.4111 65.059 50.572 67.4718 44.4852 67.4685C38.3985 67.4653 32.562 65.0461 28.2576 60.7425Z" fill="#9B9E9C"/>
</svg>
