<svg width="96" height="17" viewBox="0 0 96 17" fill="none" xmlns="http://www.w3.org/2000/svg">
<path d="M7.94333 0C3.5745 0 0 3.62707 0 8.06015C0 12.4932 3.5745 16.1203 7.94333 16.1203C12.3122 16.1203 15.8867 12.4932 15.8867 8.06015C15.8867 3.62707 12.3122 0 7.94333 0ZM87.3767 0C83.0078 0 79.4333 3.62707 79.4333 8.06015C79.4333 12.4932 83.0078 16.1203 87.3767 16.1203C91.7455 16.1203 95.32 12.4932 95.32 8.06015C95.32 3.62707 91.7455 0 87.3767 0ZM47.66 0C43.2912 0 39.7167 3.62707 39.7167 8.06015C39.7167 12.4932 43.2912 16.1203 47.66 16.1203C52.0288 16.1203 55.6033 12.4932 55.6033 8.06015C55.6033 3.62707 52.0288 0 47.66 0Z" fill="black"/>
</svg>
